<mxfile host="app.diagrams.net" agent="Mozilla/5.0 (Windows NT 10.0; Win64; x64) AppleWebKit/537.36 (KHTML, like Gecko) Chrome/130.0.0.0 Safari/537.36" version="24.8.6" pages="3">
  <diagram id="holOOd164m__eLYHWvxU" name="base_acrh">
    <mxGraphModel grid="1" page="1" gridSize="10" guides="1" tooltips="1" connect="1" arrows="1" fold="1" pageScale="1" pageWidth="850" pageHeight="1100" background="#ffffff" math="0" shadow="0">
      <root>
        <mxCell id="0" />
        <mxCell id="1" parent="0" />
        <mxCell id="6" value="" style="rounded=0;whiteSpace=wrap;html=1;labelBackgroundColor=none;align=right;labelPosition=left;verticalLabelPosition=top;verticalAlign=bottom;movable=0;resizable=0;rotatable=0;deletable=0;editable=0;locked=1;connectable=0;" vertex="1" parent="1">
          <mxGeometry x="480" y="30" width="910" height="490" as="geometry" />
        </mxCell>
        <mxCell id="kwmJNhvQWLA8w_FoLDjl-44" style="edgeStyle=orthogonalEdgeStyle;rounded=0;orthogonalLoop=1;jettySize=auto;html=1;exitX=0.25;exitY=1;exitDx=0;exitDy=0;startArrow=classic;startFill=1;entryX=0.75;entryY=0;entryDx=0;entryDy=0;" edge="1" parent="1" source="2" target="394IFyZmebu7YkG_M_vt-30">
          <mxGeometry relative="1" as="geometry">
            <mxPoint x="940.2857142857144" y="70" as="targetPoint" />
          </mxGeometry>
        </mxCell>
        <mxCell id="2" value="Мобильное&lt;br&gt;приложение&lt;br&gt;клиента" style="rounded=0;whiteSpace=wrap;html=1;labelBackgroundColor=none;" vertex="1" parent="1">
          <mxGeometry x="910" y="-200" width="120" height="60" as="geometry" />
        </mxCell>
        <mxCell id="18" style="edgeStyle=none;html=1;startArrow=classic;startFill=1;labelBackgroundColor=none;fontColor=default;" edge="1" parent="1" source="3" target="2">
          <mxGeometry relative="1" as="geometry" />
        </mxCell>
        <mxCell id="20" value="" style="edgeStyle=none;html=1;startArrow=classic;startFill=1;labelBackgroundColor=none;fontColor=default;" edge="1" parent="1" source="3" target="5">
          <mxGeometry relative="1" as="geometry" />
        </mxCell>
        <mxCell id="kwmJNhvQWLA8w_FoLDjl-45" style="edgeStyle=orthogonalEdgeStyle;rounded=0;orthogonalLoop=1;jettySize=auto;html=1;exitX=0.75;exitY=1;exitDx=0;exitDy=0;startArrow=classic;startFill=1;entryX=0.25;entryY=0;entryDx=0;entryDy=0;" edge="1" parent="1" source="3" target="394IFyZmebu7YkG_M_vt-30">
          <mxGeometry relative="1" as="geometry">
            <mxPoint x="880" y="70" as="targetPoint" />
          </mxGeometry>
        </mxCell>
        <mxCell id="3" value="Система&lt;br&gt;управления парком&lt;br&gt;автомобилей" style="rounded=0;whiteSpace=wrap;html=1;labelBackgroundColor=none;" vertex="1" parent="1">
          <mxGeometry x="670" y="-200" width="120" height="60" as="geometry" />
        </mxCell>
        <mxCell id="17" style="edgeStyle=none;html=1;entryX=0.5;entryY=0;entryDx=0;entryDy=0;startArrow=classic;startFill=1;labelBackgroundColor=none;fontColor=default;" edge="1" parent="1" source="4" target="2">
          <mxGeometry relative="1" as="geometry" />
        </mxCell>
        <mxCell id="4" value="Клиент" style="shape=umlActor;verticalLabelPosition=bottom;verticalAlign=top;html=1;outlineConnect=0;labelBackgroundColor=none;" vertex="1" parent="1">
          <mxGeometry x="955" y="-400" width="30" height="60" as="geometry" />
        </mxCell>
        <mxCell id="kwmJNhvQWLA8w_FoLDjl-43" style="edgeStyle=orthogonalEdgeStyle;rounded=0;orthogonalLoop=1;jettySize=auto;html=1;entryX=0;entryY=0.25;entryDx=0;entryDy=0;startArrow=classic;startFill=1;" edge="1" parent="1" source="5" target="2">
          <mxGeometry relative="1" as="geometry" />
        </mxCell>
        <mxCell id="5" value="Система&lt;br&gt;оплаты услуг" style="rounded=0;whiteSpace=wrap;html=1;labelBackgroundColor=none;" vertex="1" parent="1">
          <mxGeometry x="670" y="-350" width="120" height="60" as="geometry" />
        </mxCell>
        <mxCell id="kwmJNhvQWLA8w_FoLDjl-23" value="Автомобиль" style="text;html=1;align=center;verticalAlign=middle;whiteSpace=wrap;rounded=0;" vertex="1" parent="1">
          <mxGeometry x="480" width="60" height="30" as="geometry" />
        </mxCell>
        <mxCell id="394IFyZmebu7YkG_M_vt-36" style="edgeStyle=orthogonalEdgeStyle;rounded=0;orthogonalLoop=1;jettySize=auto;html=1;entryX=0.75;entryY=1;entryDx=0;entryDy=0;startArrow=classic;startFill=1;" edge="1" parent="1" source="394IFyZmebu7YkG_M_vt-23" target="394IFyZmebu7YkG_M_vt-25">
          <mxGeometry relative="1" as="geometry" />
        </mxCell>
        <mxCell id="394IFyZmebu7YkG_M_vt-23" value="Модуль управление двигателем" style="rounded=0;whiteSpace=wrap;html=1;" vertex="1" parent="1">
          <mxGeometry x="720" y="400" width="120" height="60" as="geometry" />
        </mxCell>
        <mxCell id="394IFyZmebu7YkG_M_vt-25" value="Электронный блок" style="rounded=0;whiteSpace=wrap;html=1;" vertex="1" parent="1">
          <mxGeometry x="840" y="250" width="120" height="60" as="geometry" />
        </mxCell>
        <mxCell id="394IFyZmebu7YkG_M_vt-42" style="edgeStyle=orthogonalEdgeStyle;rounded=0;orthogonalLoop=1;jettySize=auto;html=1;entryX=0.5;entryY=0;entryDx=0;entryDy=0;startArrow=classic;startFill=1;" edge="1" parent="1" source="394IFyZmebu7YkG_M_vt-30" target="394IFyZmebu7YkG_M_vt-25">
          <mxGeometry relative="1" as="geometry" />
        </mxCell>
        <mxCell id="394IFyZmebu7YkG_M_vt-30" value="IoT система" style="rounded=0;whiteSpace=wrap;html=1;" vertex="1" parent="1">
          <mxGeometry x="840" y="90" width="120" height="60" as="geometry" />
        </mxCell>
        <mxCell id="394IFyZmebu7YkG_M_vt-51" style="edgeStyle=orthogonalEdgeStyle;rounded=0;orthogonalLoop=1;jettySize=auto;html=1;entryX=1;entryY=0.25;entryDx=0;entryDy=0;exitX=0.5;exitY=1;exitDx=0;exitDy=0;startArrow=classic;startFill=1;" edge="1" parent="1" source="394IFyZmebu7YkG_M_vt-31" target="394IFyZmebu7YkG_M_vt-25">
          <mxGeometry relative="1" as="geometry" />
        </mxCell>
        <mxCell id="394IFyZmebu7YkG_M_vt-31" value="Двери" style="rounded=0;whiteSpace=wrap;html=1;" vertex="1" parent="1">
          <mxGeometry x="1100" y="100" width="120" height="60" as="geometry" />
        </mxCell>
        <mxCell id="394IFyZmebu7YkG_M_vt-45" style="edgeStyle=orthogonalEdgeStyle;rounded=0;orthogonalLoop=1;jettySize=auto;html=1;entryX=1;entryY=0.75;entryDx=0;entryDy=0;exitX=0;exitY=0.5;exitDx=0;exitDy=0;" edge="1" parent="1" source="sbTSaQRaIq_4_i9irdHI-23" target="394IFyZmebu7YkG_M_vt-25">
          <mxGeometry relative="1" as="geometry">
            <Array as="points">
              <mxPoint x="1080" y="295" />
            </Array>
          </mxGeometry>
        </mxCell>
        <mxCell id="sbTSaQRaIq_4_i9irdHI-23" value="Модуль навигации" style="rounded=0;whiteSpace=wrap;html=1;" vertex="1" parent="1">
          <mxGeometry x="1100" y="330" width="120" height="60" as="geometry" />
        </mxCell>
        <mxCell id="394IFyZmebu7YkG_M_vt-47" style="edgeStyle=orthogonalEdgeStyle;rounded=0;orthogonalLoop=1;jettySize=auto;html=1;" edge="1" parent="1" source="394IFyZmebu7YkG_M_vt-40">
          <mxGeometry relative="1" as="geometry">
            <mxPoint x="840" y="280" as="targetPoint" />
          </mxGeometry>
        </mxCell>
        <mxCell id="394IFyZmebu7YkG_M_vt-40" value="Модули технической готовности" style="rounded=0;whiteSpace=wrap;html=1;" vertex="1" parent="1">
          <mxGeometry x="550" y="240" width="170" height="60" as="geometry" />
        </mxCell>
      </root>
    </mxGraphModel>
  </diagram>
  <diagram name="arch" id="UPUC9XD3Y9JmTpg5Cdma">
    <mxGraphModel grid="1" page="1" gridSize="10" guides="1" tooltips="1" connect="1" arrows="1" fold="1" pageScale="1" pageWidth="2500" pageHeight="2500" math="0" shadow="0">
      <root>
        <mxCell id="c9H_aWx4Ouh0dALJL8Jf-0" />
        <mxCell id="c9H_aWx4Ouh0dALJL8Jf-1" parent="c9H_aWx4Ouh0dALJL8Jf-0" />
        <mxCell id="c9H_aWx4Ouh0dALJL8Jf-2" value="" style="rounded=0;whiteSpace=wrap;html=1;labelBackgroundColor=none;align=right;labelPosition=left;verticalLabelPosition=top;verticalAlign=bottom;movable=0;resizable=0;rotatable=0;deletable=0;editable=0;locked=1;connectable=0;" vertex="1" parent="c9H_aWx4Ouh0dALJL8Jf-1">
          <mxGeometry x="210" width="1430" height="700" as="geometry" />
        </mxCell>
        <mxCell id="c9H_aWx4Ouh0dALJL8Jf-3" value="Мобильное&lt;br&gt;приложение&lt;br&gt;клиента" style="rounded=0;whiteSpace=wrap;html=1;labelBackgroundColor=none;" vertex="1" parent="c9H_aWx4Ouh0dALJL8Jf-1">
          <mxGeometry x="1080" y="-200" width="120" height="60" as="geometry" />
        </mxCell>
        <mxCell id="c9H_aWx4Ouh0dALJL8Jf-4" value="Система&lt;br&gt;управления парком&lt;br&gt;автомобилей" style="rounded=0;whiteSpace=wrap;html=1;labelBackgroundColor=none;" vertex="1" parent="c9H_aWx4Ouh0dALJL8Jf-1">
          <mxGeometry x="840" y="-200" width="120" height="60" as="geometry" />
        </mxCell>
        <mxCell id="c9H_aWx4Ouh0dALJL8Jf-5" style="edgeStyle=none;html=1;entryX=0.5;entryY=0;entryDx=0;entryDy=0;startArrow=classic;startFill=1;labelBackgroundColor=none;fontColor=default;" edge="1" parent="c9H_aWx4Ouh0dALJL8Jf-1" source="c9H_aWx4Ouh0dALJL8Jf-6" target="c9H_aWx4Ouh0dALJL8Jf-3">
          <mxGeometry relative="1" as="geometry" />
        </mxCell>
        <mxCell id="c9H_aWx4Ouh0dALJL8Jf-6" value="Клиент" style="shape=umlActor;verticalLabelPosition=bottom;verticalAlign=top;html=1;outlineConnect=0;labelBackgroundColor=none;" vertex="1" parent="c9H_aWx4Ouh0dALJL8Jf-1">
          <mxGeometry x="1125" y="-400" width="30" height="60" as="geometry" />
        </mxCell>
        <mxCell id="c9H_aWx4Ouh0dALJL8Jf-7" value="" style="group" connectable="0" vertex="1" parent="c9H_aWx4Ouh0dALJL8Jf-1">
          <mxGeometry x="210" y="250" width="450" height="220" as="geometry" />
        </mxCell>
        <mxCell id="c9H_aWx4Ouh0dALJL8Jf-8" value="" style="group" connectable="0" vertex="1" parent="c9H_aWx4Ouh0dALJL8Jf-7">
          <mxGeometry x="60" width="360" height="140" as="geometry" />
        </mxCell>
        <mxCell id="c9H_aWx4Ouh0dALJL8Jf-9" value="Модули технической готовности" style="rounded=0;whiteSpace=wrap;html=1;labelPosition=center;verticalLabelPosition=top;align=left;verticalAlign=bottom;" vertex="1" parent="c9H_aWx4Ouh0dALJL8Jf-8">
          <mxGeometry width="360" height="140" as="geometry" />
        </mxCell>
        <mxCell id="c9H_aWx4Ouh0dALJL8Jf-10" value="headlights" style="rounded=0;whiteSpace=wrap;html=1;" vertex="1" parent="c9H_aWx4Ouh0dALJL8Jf-8">
          <mxGeometry x="200" y="20.00478518518519" width="140" height="32.592592592592595" as="geometry" />
        </mxCell>
        <mxCell id="c9H_aWx4Ouh0dALJL8Jf-11" value="vehicle_braking" style="rounded=0;whiteSpace=wrap;html=1;" vertex="1" parent="c9H_aWx4Ouh0dALJL8Jf-8">
          <mxGeometry x="30" y="83.69967407407408" width="140" height="32.592592592592595" as="geometry" />
        </mxCell>
        <mxCell id="c9H_aWx4Ouh0dALJL8Jf-12" value="tire_sensors" style="rounded=0;whiteSpace=wrap;html=1;" vertex="1" parent="c9H_aWx4Ouh0dALJL8Jf-8">
          <mxGeometry x="30" y="20.0086962962963" width="140" height="32.592592592592595" as="geometry" />
        </mxCell>
        <mxCell id="c9H_aWx4Ouh0dALJL8Jf-13" value="fuel_tank" style="rounded=0;whiteSpace=wrap;html=1;" vertex="1" parent="c9H_aWx4Ouh0dALJL8Jf-8">
          <mxGeometry x="200" y="83.70576296296301" width="140" height="32.592592592592595" as="geometry" />
        </mxCell>
        <mxCell id="c9H_aWx4Ouh0dALJL8Jf-14" value="&lt;div style=&quot;text-align: justify; line-height: 90%;&quot;&gt;&lt;span style=&quot;background-color: initial;&quot;&gt;&lt;font style=&quot;font-size: 9px;&quot;&gt;SS&lt;/font&gt;&lt;/span&gt;&lt;/div&gt;" style="ellipse;whiteSpace=wrap;html=1;aspect=fixed;fontSize=10;" vertex="1" parent="c9H_aWx4Ouh0dALJL8Jf-8">
          <mxGeometry x="156.53999999999996" y="13" width="18.46" height="18.46" as="geometry" />
        </mxCell>
        <mxCell id="c9H_aWx4Ouh0dALJL8Jf-15" value="&lt;div style=&quot;text-align: justify; line-height: 90%;&quot;&gt;&lt;span style=&quot;background-color: initial;&quot;&gt;&lt;font style=&quot;font-size: 9px;&quot;&gt;SS&lt;/font&gt;&lt;/span&gt;&lt;/div&gt;" style="ellipse;whiteSpace=wrap;html=1;aspect=fixed;fontSize=10;" vertex="1" parent="c9H_aWx4Ouh0dALJL8Jf-8">
          <mxGeometry x="156.53999999999996" y="77" width="18.46" height="18.46" as="geometry" />
        </mxCell>
        <mxCell id="c9H_aWx4Ouh0dALJL8Jf-16" value="&lt;div style=&quot;text-align: justify; line-height: 90%;&quot;&gt;&lt;span style=&quot;background-color: initial;&quot;&gt;&lt;font style=&quot;font-size: 9px;&quot;&gt;SS&lt;/font&gt;&lt;/span&gt;&lt;/div&gt;" style="ellipse;whiteSpace=wrap;html=1;aspect=fixed;fontSize=10;" vertex="1" parent="c9H_aWx4Ouh0dALJL8Jf-8">
          <mxGeometry x="327" y="12" width="18.46" height="18.46" as="geometry" />
        </mxCell>
        <mxCell id="c9H_aWx4Ouh0dALJL8Jf-17" value="&lt;div style=&quot;text-align: justify; line-height: 90%;&quot;&gt;&lt;span style=&quot;background-color: initial;&quot;&gt;&lt;font style=&quot;font-size: 9px;&quot;&gt;SS&lt;/font&gt;&lt;/span&gt;&lt;/div&gt;" style="ellipse;whiteSpace=wrap;html=1;aspect=fixed;fontSize=10;" vertex="1" parent="c9H_aWx4Ouh0dALJL8Jf-8">
          <mxGeometry x="327.53999999999996" y="78" width="18.46" height="18.46" as="geometry" />
        </mxCell>
        <mxCell id="c9H_aWx4Ouh0dALJL8Jf-18" value="" style="group;movable=1;resizable=1;rotatable=1;deletable=1;editable=1;locked=0;connectable=1;" connectable="0" vertex="1" parent="c9H_aWx4Ouh0dALJL8Jf-1">
          <mxGeometry x="230" y="20" width="120" height="130" as="geometry" />
        </mxCell>
        <mxCell id="c9H_aWx4Ouh0dALJL8Jf-19" style="edgeStyle=orthogonalEdgeStyle;rounded=0;orthogonalLoop=1;jettySize=auto;html=1;exitX=0.25;exitY=1;exitDx=0;exitDy=0;entryX=0.25;entryY=0;entryDx=0;entryDy=0;movable=1;resizable=1;rotatable=1;deletable=1;editable=1;locked=0;connectable=1;" edge="1" parent="c9H_aWx4Ouh0dALJL8Jf-18" source="c9H_aWx4Ouh0dALJL8Jf-20" target="c9H_aWx4Ouh0dALJL8Jf-22">
          <mxGeometry relative="1" as="geometry" />
        </mxCell>
        <mxCell id="c9H_aWx4Ouh0dALJL8Jf-20" value="Брокер сообщений" style="rounded=0;whiteSpace=wrap;html=1;movable=1;resizable=1;rotatable=1;deletable=1;editable=1;locked=0;connectable=1;" vertex="1" parent="c9H_aWx4Ouh0dALJL8Jf-18">
          <mxGeometry width="120" height="50" as="geometry" />
        </mxCell>
        <mxCell id="c9H_aWx4Ouh0dALJL8Jf-21" style="edgeStyle=orthogonalEdgeStyle;rounded=0;orthogonalLoop=1;jettySize=auto;html=1;exitX=0.75;exitY=0;exitDx=0;exitDy=0;entryX=0.75;entryY=1;entryDx=0;entryDy=0;movable=1;resizable=1;rotatable=1;deletable=1;editable=1;locked=0;connectable=1;" edge="1" parent="c9H_aWx4Ouh0dALJL8Jf-18" source="c9H_aWx4Ouh0dALJL8Jf-22" target="c9H_aWx4Ouh0dALJL8Jf-20">
          <mxGeometry relative="1" as="geometry" />
        </mxCell>
        <mxCell id="c9H_aWx4Ouh0dALJL8Jf-22" value="Монитор безопасности" style="rounded=0;whiteSpace=wrap;html=1;movable=1;resizable=1;rotatable=1;deletable=1;editable=1;locked=0;connectable=1;" vertex="1" parent="c9H_aWx4Ouh0dALJL8Jf-18">
          <mxGeometry y="80" width="120" height="50" as="geometry" />
        </mxCell>
        <mxCell id="c9H_aWx4Ouh0dALJL8Jf-23" style="edgeStyle=none;html=1;startArrow=classic;startFill=1;labelBackgroundColor=none;fontColor=default;" edge="1" parent="c9H_aWx4Ouh0dALJL8Jf-1" source="c9H_aWx4Ouh0dALJL8Jf-4" target="c9H_aWx4Ouh0dALJL8Jf-3">
          <mxGeometry relative="1" as="geometry" />
        </mxCell>
        <mxCell id="c9H_aWx4Ouh0dALJL8Jf-24" value="" style="edgeStyle=none;html=1;startArrow=classic;startFill=1;labelBackgroundColor=none;fontColor=default;" edge="1" parent="c9H_aWx4Ouh0dALJL8Jf-1" source="c9H_aWx4Ouh0dALJL8Jf-4" target="c9H_aWx4Ouh0dALJL8Jf-26">
          <mxGeometry relative="1" as="geometry" />
        </mxCell>
        <mxCell id="c9H_aWx4Ouh0dALJL8Jf-25" style="edgeStyle=orthogonalEdgeStyle;rounded=0;orthogonalLoop=1;jettySize=auto;html=1;entryX=0;entryY=0.25;entryDx=0;entryDy=0;startArrow=classic;startFill=1;" edge="1" parent="c9H_aWx4Ouh0dALJL8Jf-1" source="c9H_aWx4Ouh0dALJL8Jf-26" target="c9H_aWx4Ouh0dALJL8Jf-3">
          <mxGeometry relative="1" as="geometry" />
        </mxCell>
        <mxCell id="c9H_aWx4Ouh0dALJL8Jf-26" value="Система&lt;br&gt;оплаты услуг" style="rounded=0;whiteSpace=wrap;html=1;labelBackgroundColor=none;" vertex="1" parent="c9H_aWx4Ouh0dALJL8Jf-1">
          <mxGeometry x="840" y="-350" width="120" height="60" as="geometry" />
        </mxCell>
        <mxCell id="c9H_aWx4Ouh0dALJL8Jf-27" value="Автомобиль" style="text;html=1;align=center;verticalAlign=middle;whiteSpace=wrap;rounded=0;" vertex="1" parent="c9H_aWx4Ouh0dALJL8Jf-1">
          <mxGeometry x="210" y="-30" width="60" height="30" as="geometry" />
        </mxCell>
        <mxCell id="c9H_aWx4Ouh0dALJL8Jf-28" value="eblocks" style="rounded=0;whiteSpace=wrap;html=1;" vertex="1" parent="c9H_aWx4Ouh0dALJL8Jf-1">
          <mxGeometry x="769.5" y="240" width="120" height="110" as="geometry" />
        </mxCell>
        <mxCell id="c9H_aWx4Ouh0dALJL8Jf-29" value="IoT система" style="rounded=0;whiteSpace=wrap;html=1;labelPosition=center;verticalLabelPosition=top;align=center;verticalAlign=bottom;" vertex="1" parent="c9H_aWx4Ouh0dALJL8Jf-1">
          <mxGeometry x="870" y="25" width="360" height="170" as="geometry" />
        </mxCell>
        <mxCell id="c9H_aWx4Ouh0dALJL8Jf-30" value="Модуль управления дверьми" style="rounded=0;whiteSpace=wrap;html=1;labelPosition=center;verticalLabelPosition=top;align=left;verticalAlign=bottom;" vertex="1" parent="c9H_aWx4Ouh0dALJL8Jf-1">
          <mxGeometry x="1012" y="330" width="240" height="110" as="geometry" />
        </mxCell>
        <mxCell id="c9H_aWx4Ouh0dALJL8Jf-31" style="edgeStyle=orthogonalEdgeStyle;rounded=0;orthogonalLoop=1;jettySize=auto;html=1;entryX=1;entryY=0.5;entryDx=0;entryDy=0;jumpStyle=arc;" edge="1" parent="c9H_aWx4Ouh0dALJL8Jf-1" source="c9H_aWx4Ouh0dALJL8Jf-32" target="c9H_aWx4Ouh0dALJL8Jf-28">
          <mxGeometry relative="1" as="geometry">
            <Array as="points">
              <mxPoint x="937" y="385" />
              <mxPoint x="937" y="295" />
            </Array>
          </mxGeometry>
        </mxCell>
        <mxCell id="c9H_aWx4Ouh0dALJL8Jf-32" value="doors_controller" style="rounded=0;whiteSpace=wrap;html=1;" vertex="1" parent="c9H_aWx4Ouh0dALJL8Jf-1">
          <mxGeometry x="1027" y="365" width="93" height="40" as="geometry" />
        </mxCell>
        <mxCell id="c9H_aWx4Ouh0dALJL8Jf-33" value="" style="group" connectable="0" vertex="1" parent="c9H_aWx4Ouh0dALJL8Jf-1">
          <mxGeometry x="927" y="510" width="290" height="80" as="geometry" />
        </mxCell>
        <mxCell id="c9H_aWx4Ouh0dALJL8Jf-34" value="Модуль навигации" style="rounded=0;whiteSpace=wrap;html=1;labelPosition=center;verticalLabelPosition=top;align=left;verticalAlign=bottom;" vertex="1" parent="c9H_aWx4Ouh0dALJL8Jf-33">
          <mxGeometry width="290" height="80" as="geometry" />
        </mxCell>
        <mxCell id="c9H_aWx4Ouh0dALJL8Jf-35" value="gps" style="rounded=0;whiteSpace=wrap;html=1;" vertex="1" parent="c9H_aWx4Ouh0dALJL8Jf-33">
          <mxGeometry x="160" y="15" width="120" height="50" as="geometry" />
        </mxCell>
        <mxCell id="c9H_aWx4Ouh0dALJL8Jf-36" value="navigation_handler" style="rounded=0;whiteSpace=wrap;html=1;" vertex="1" parent="c9H_aWx4Ouh0dALJL8Jf-33">
          <mxGeometry x="10" y="15" width="120" height="50" as="geometry" />
        </mxCell>
        <mxCell id="c9H_aWx4Ouh0dALJL8Jf-37" style="edgeStyle=orthogonalEdgeStyle;rounded=0;orthogonalLoop=1;jettySize=auto;html=1;exitX=0;exitY=0.5;exitDx=0;exitDy=0;entryX=1;entryY=0.5;entryDx=0;entryDy=0;" edge="1" parent="c9H_aWx4Ouh0dALJL8Jf-33" source="c9H_aWx4Ouh0dALJL8Jf-35" target="c9H_aWx4Ouh0dALJL8Jf-36">
          <mxGeometry relative="1" as="geometry" />
        </mxCell>
        <mxCell id="c9H_aWx4Ouh0dALJL8Jf-38" value="&lt;div style=&quot;text-align: justify; line-height: 90%;&quot;&gt;&lt;span style=&quot;background-color: initial;&quot;&gt;&lt;font style=&quot;font-size: 9px;&quot;&gt;SS&lt;/font&gt;&lt;/span&gt;&lt;/div&gt;" style="ellipse;whiteSpace=wrap;html=1;aspect=fixed;fontSize=10;" vertex="1" parent="c9H_aWx4Ouh0dALJL8Jf-33">
          <mxGeometry x="266.53999999999996" y="8" width="18.46" height="18.46" as="geometry" />
        </mxCell>
        <mxCell id="c9H_aWx4Ouh0dALJL8Jf-39" value="&lt;div style=&quot;text-align: justify; line-height: 90%;&quot;&gt;&lt;span style=&quot;background-color: initial;&quot;&gt;&lt;font style=&quot;font-size: 9px;&quot;&gt;MS&lt;/font&gt;&lt;/span&gt;&lt;/div&gt;" style="ellipse;whiteSpace=wrap;html=1;aspect=fixed;fontSize=10;" vertex="1" parent="c9H_aWx4Ouh0dALJL8Jf-33">
          <mxGeometry x="115.53999999999996" y="8" width="18.46" height="18.46" as="geometry" />
        </mxCell>
        <mxCell id="c9H_aWx4Ouh0dALJL8Jf-40" style="edgeStyle=orthogonalEdgeStyle;rounded=0;orthogonalLoop=1;jettySize=auto;html=1;exitX=0;exitY=0.5;exitDx=0;exitDy=0;entryX=1;entryY=0.75;entryDx=0;entryDy=0;" edge="1" parent="c9H_aWx4Ouh0dALJL8Jf-1" source="c9H_aWx4Ouh0dALJL8Jf-36" target="c9H_aWx4Ouh0dALJL8Jf-28">
          <mxGeometry relative="1" as="geometry">
            <mxPoint x="957" y="290" as="targetPoint" />
          </mxGeometry>
        </mxCell>
        <mxCell id="c9H_aWx4Ouh0dALJL8Jf-41" value="" style="group;" connectable="0" vertex="1" parent="c9H_aWx4Ouh0dALJL8Jf-1">
          <mxGeometry x="667" y="460" width="170" height="140" as="geometry" />
        </mxCell>
        <mxCell id="c9H_aWx4Ouh0dALJL8Jf-42" value="Модуль управления двигателем" style="rounded=0;whiteSpace=wrap;html=1;labelPosition=center;verticalLabelPosition=top;align=left;verticalAlign=bottom;" vertex="1" parent="c9H_aWx4Ouh0dALJL8Jf-41">
          <mxGeometry width="170" height="140" as="geometry" />
        </mxCell>
        <mxCell id="c9H_aWx4Ouh0dALJL8Jf-43" value="engine" style="rounded=0;whiteSpace=wrap;html=1;" vertex="1" parent="c9H_aWx4Ouh0dALJL8Jf-41">
          <mxGeometry x="25" y="90" width="120" height="40" as="geometry" />
        </mxCell>
        <mxCell id="c9H_aWx4Ouh0dALJL8Jf-44" value="engine_controller" style="rounded=0;whiteSpace=wrap;html=1;" vertex="1" parent="c9H_aWx4Ouh0dALJL8Jf-41">
          <mxGeometry x="25" y="20" width="120" height="40" as="geometry" />
        </mxCell>
        <mxCell id="c9H_aWx4Ouh0dALJL8Jf-45" style="edgeStyle=orthogonalEdgeStyle;rounded=0;orthogonalLoop=1;jettySize=auto;html=1;exitX=0.5;exitY=0;exitDx=0;exitDy=0;entryX=0.5;entryY=1;entryDx=0;entryDy=0;" edge="1" parent="c9H_aWx4Ouh0dALJL8Jf-41">
          <mxGeometry relative="1" as="geometry">
            <mxPoint x="84" y="90" as="sourcePoint" />
            <mxPoint x="84" y="60" as="targetPoint" />
          </mxGeometry>
        </mxCell>
        <mxCell id="c9H_aWx4Ouh0dALJL8Jf-46" value="&lt;div style=&quot;text-align: justify; line-height: 90%;&quot;&gt;&lt;span style=&quot;background-color: initial;&quot;&gt;&lt;font style=&quot;font-size: 9px;&quot;&gt;SS&lt;/font&gt;&lt;/span&gt;&lt;/div&gt;" style="ellipse;whiteSpace=wrap;html=1;aspect=fixed;fontSize=10;" vertex="1" parent="c9H_aWx4Ouh0dALJL8Jf-41">
          <mxGeometry x="132" y="83" width="18.46" height="18.46" as="geometry" />
        </mxCell>
        <mxCell id="c9H_aWx4Ouh0dALJL8Jf-47" value="&lt;div style=&quot;text-align: justify; line-height: 90%;&quot;&gt;&lt;span style=&quot;background-color: initial;&quot;&gt;&lt;font style=&quot;font-size: 9px;&quot;&gt;MS&lt;/font&gt;&lt;/span&gt;&lt;/div&gt;" style="ellipse;whiteSpace=wrap;html=1;aspect=fixed;fontSize=10;" vertex="1" parent="c9H_aWx4Ouh0dALJL8Jf-41">
          <mxGeometry x="130" y="10.999999999999943" width="18.46" height="18.46" as="geometry" />
        </mxCell>
        <mxCell id="c9H_aWx4Ouh0dALJL8Jf-48" style="edgeStyle=orthogonalEdgeStyle;rounded=0;orthogonalLoop=1;jettySize=auto;html=1;exitX=0.5;exitY=0;exitDx=0;exitDy=0;entryX=0.5;entryY=1;entryDx=0;entryDy=0;startArrow=none;startFill=0;" edge="1" parent="c9H_aWx4Ouh0dALJL8Jf-1" source="c9H_aWx4Ouh0dALJL8Jf-44" target="c9H_aWx4Ouh0dALJL8Jf-28">
          <mxGeometry relative="1" as="geometry" />
        </mxCell>
        <mxCell id="Zp-_Dft3jPGD0DlJg8vz-0" style="edgeStyle=orthogonalEdgeStyle;rounded=0;orthogonalLoop=1;jettySize=auto;html=1;entryX=0.5;entryY=0;entryDx=0;entryDy=0;jumpStyle=arc;" edge="1" parent="c9H_aWx4Ouh0dALJL8Jf-1" source="c9H_aWx4Ouh0dALJL8Jf-49" target="c9H_aWx4Ouh0dALJL8Jf-28">
          <mxGeometry relative="1" as="geometry">
            <Array as="points">
              <mxPoint x="1050" y="82" />
              <mxPoint x="1050" y="170" />
              <mxPoint x="830" y="170" />
            </Array>
          </mxGeometry>
        </mxCell>
        <mxCell id="c9H_aWx4Ouh0dALJL8Jf-49" value="Conn_with_mob_app" style="rounded=0;whiteSpace=wrap;html=1;" vertex="1" parent="c9H_aWx4Ouh0dALJL8Jf-1">
          <mxGeometry x="1080" y="45" width="120" height="75" as="geometry" />
        </mxCell>
        <mxCell id="c9H_aWx4Ouh0dALJL8Jf-50" style="edgeStyle=orthogonalEdgeStyle;rounded=0;orthogonalLoop=1;jettySize=auto;html=1;exitX=0.25;exitY=1;exitDx=0;exitDy=0;entryX=0.25;entryY=0;entryDx=0;entryDy=0;startArrow=classic;startFill=1;" edge="1" parent="c9H_aWx4Ouh0dALJL8Jf-1" source="c9H_aWx4Ouh0dALJL8Jf-3" target="c9H_aWx4Ouh0dALJL8Jf-49">
          <mxGeometry relative="1" as="geometry">
            <mxPoint x="939.9655172413793" y="89.99999999999955" as="targetPoint" />
          </mxGeometry>
        </mxCell>
        <mxCell id="c9H_aWx4Ouh0dALJL8Jf-51" value="Conn_with_&lt;div&gt;manag_sys&lt;/div&gt;" style="rounded=0;whiteSpace=wrap;html=1;" vertex="1" parent="c9H_aWx4Ouh0dALJL8Jf-1">
          <mxGeometry x="900" y="45" width="120" height="60" as="geometry" />
        </mxCell>
        <mxCell id="c9H_aWx4Ouh0dALJL8Jf-52" style="edgeStyle=orthogonalEdgeStyle;rounded=0;orthogonalLoop=1;jettySize=auto;html=1;exitX=0.75;exitY=1;exitDx=0;exitDy=0;startArrow=classic;startFill=1;entryX=0.556;entryY=0.036;entryDx=0;entryDy=0;entryPerimeter=0;" edge="1" parent="c9H_aWx4Ouh0dALJL8Jf-1" source="c9H_aWx4Ouh0dALJL8Jf-4" target="c9H_aWx4Ouh0dALJL8Jf-51">
          <mxGeometry relative="1" as="geometry">
            <mxPoint x="880" y="70" as="targetPoint" />
          </mxGeometry>
        </mxCell>
        <mxCell id="c9H_aWx4Ouh0dALJL8Jf-53" style="edgeStyle=orthogonalEdgeStyle;rounded=0;orthogonalLoop=1;jettySize=auto;html=1;entryX=0.25;entryY=0;entryDx=0;entryDy=0;" edge="1" parent="c9H_aWx4Ouh0dALJL8Jf-1" source="c9H_aWx4Ouh0dALJL8Jf-12" target="c9H_aWx4Ouh0dALJL8Jf-28">
          <mxGeometry relative="1" as="geometry">
            <mxPoint x="800" y="290" as="targetPoint" />
            <Array as="points">
              <mxPoint x="370" y="210" />
              <mxPoint x="800" y="210" />
              <mxPoint x="800" y="240" />
            </Array>
          </mxGeometry>
        </mxCell>
        <mxCell id="c9H_aWx4Ouh0dALJL8Jf-54" style="edgeStyle=orthogonalEdgeStyle;rounded=0;orthogonalLoop=1;jettySize=auto;html=1;entryX=0;entryY=0.25;entryDx=0;entryDy=0;startArrow=classic;startFill=1;" edge="1" parent="c9H_aWx4Ouh0dALJL8Jf-1" source="c9H_aWx4Ouh0dALJL8Jf-10" target="c9H_aWx4Ouh0dALJL8Jf-28">
          <mxGeometry relative="1" as="geometry">
            <Array as="points">
              <mxPoint x="706" y="283" />
            </Array>
          </mxGeometry>
        </mxCell>
        <mxCell id="c9H_aWx4Ouh0dALJL8Jf-55" style="edgeStyle=orthogonalEdgeStyle;rounded=0;orthogonalLoop=1;jettySize=auto;html=1;entryX=0;entryY=0.5;entryDx=0;entryDy=0;startArrow=classic;startFill=1;" edge="1" parent="c9H_aWx4Ouh0dALJL8Jf-1" source="c9H_aWx4Ouh0dALJL8Jf-13" target="c9H_aWx4Ouh0dALJL8Jf-28">
          <mxGeometry relative="1" as="geometry" />
        </mxCell>
        <mxCell id="c9H_aWx4Ouh0dALJL8Jf-56" style="edgeStyle=orthogonalEdgeStyle;rounded=0;orthogonalLoop=1;jettySize=auto;html=1;exitX=0.5;exitY=1;exitDx=0;exitDy=0;entryX=0.007;entryY=0.803;entryDx=0;entryDy=0;entryPerimeter=0;" edge="1" parent="c9H_aWx4Ouh0dALJL8Jf-1" source="c9H_aWx4Ouh0dALJL8Jf-11" target="c9H_aWx4Ouh0dALJL8Jf-28">
          <mxGeometry relative="1" as="geometry">
            <mxPoint x="760" y="350" as="targetPoint" />
            <Array as="points">
              <mxPoint x="370" y="410" />
              <mxPoint x="730" y="410" />
              <mxPoint x="730" y="328" />
              <mxPoint x="770" y="328" />
            </Array>
          </mxGeometry>
        </mxCell>
        <mxCell id="c9H_aWx4Ouh0dALJL8Jf-57" value="locking_device" style="rounded=0;whiteSpace=wrap;html=1;" vertex="1" parent="c9H_aWx4Ouh0dALJL8Jf-1">
          <mxGeometry x="1147" y="362.5" width="93" height="45" as="geometry" />
        </mxCell>
        <mxCell id="c9H_aWx4Ouh0dALJL8Jf-58" value="" style="endArrow=classic;html=1;rounded=0;exitX=1;exitY=0.5;exitDx=0;exitDy=0;entryX=0;entryY=0.5;entryDx=0;entryDy=0;" edge="1" parent="c9H_aWx4Ouh0dALJL8Jf-1" source="c9H_aWx4Ouh0dALJL8Jf-32" target="c9H_aWx4Ouh0dALJL8Jf-57">
          <mxGeometry width="50" height="50" relative="1" as="geometry">
            <mxPoint x="1157" y="310" as="sourcePoint" />
            <mxPoint x="1207" y="260" as="targetPoint" />
          </mxGeometry>
        </mxCell>
        <mxCell id="c9H_aWx4Ouh0dALJL8Jf-59" value="Модуль валидации" style="rounded=0;whiteSpace=wrap;html=1;labelPosition=center;verticalLabelPosition=top;align=center;verticalAlign=bottom;" vertex="1" parent="c9H_aWx4Ouh0dALJL8Jf-1">
          <mxGeometry x="1346" y="273" width="254" height="327" as="geometry" />
        </mxCell>
        <mxCell id="c9H_aWx4Ouh0dALJL8Jf-60" style="edgeStyle=orthogonalEdgeStyle;rounded=0;orthogonalLoop=1;jettySize=auto;html=1;entryX=1;entryY=0.5;entryDx=0;entryDy=0;exitX=1;exitY=0.5;exitDx=0;exitDy=0;" edge="1" parent="c9H_aWx4Ouh0dALJL8Jf-1" source="c9H_aWx4Ouh0dALJL8Jf-63" target="c9H_aWx4Ouh0dALJL8Jf-72">
          <mxGeometry relative="1" as="geometry" />
        </mxCell>
        <mxCell id="c9H_aWx4Ouh0dALJL8Jf-61" style="edgeStyle=orthogonalEdgeStyle;rounded=0;orthogonalLoop=1;jettySize=auto;html=1;entryX=1;entryY=0.5;entryDx=0;entryDy=0;" edge="1" parent="c9H_aWx4Ouh0dALJL8Jf-1" source="c9H_aWx4Ouh0dALJL8Jf-63" target="c9H_aWx4Ouh0dALJL8Jf-68">
          <mxGeometry relative="1" as="geometry">
            <Array as="points">
              <mxPoint x="1500" y="490" />
              <mxPoint x="1500" y="315" />
            </Array>
          </mxGeometry>
        </mxCell>
        <mxCell id="c9H_aWx4Ouh0dALJL8Jf-62" style="edgeStyle=orthogonalEdgeStyle;rounded=0;orthogonalLoop=1;jettySize=auto;html=1;exitX=0.5;exitY=1;exitDx=0;exitDy=0;entryX=1;entryY=0.25;entryDx=0;entryDy=0;jumpStyle=arc;" edge="1" parent="c9H_aWx4Ouh0dALJL8Jf-1" source="c9H_aWx4Ouh0dALJL8Jf-63" target="c9H_aWx4Ouh0dALJL8Jf-76">
          <mxGeometry relative="1" as="geometry">
            <Array as="points">
              <mxPoint x="1420" y="520" />
              <mxPoint x="1550" y="520" />
              <mxPoint x="1550" y="145" />
            </Array>
          </mxGeometry>
        </mxCell>
        <mxCell id="c9H_aWx4Ouh0dALJL8Jf-63" value="command_validator" style="rounded=0;whiteSpace=wrap;html=1;" vertex="1" parent="c9H_aWx4Ouh0dALJL8Jf-1">
          <mxGeometry x="1370" y="440" width="120" height="60" as="geometry" />
        </mxCell>
        <mxCell id="c9H_aWx4Ouh0dALJL8Jf-64" style="edgeStyle=orthogonalEdgeStyle;rounded=0;orthogonalLoop=1;jettySize=auto;html=1;entryX=1;entryY=0.25;entryDx=0;entryDy=0;startArrow=classic;startFill=1;exitX=0;exitY=0.75;exitDx=0;exitDy=0;" edge="1" parent="c9H_aWx4Ouh0dALJL8Jf-1" source="c9H_aWx4Ouh0dALJL8Jf-68" target="c9H_aWx4Ouh0dALJL8Jf-49">
          <mxGeometry relative="1" as="geometry">
            <Array as="points">
              <mxPoint x="1330" y="328" />
              <mxPoint x="1330" y="64" />
            </Array>
          </mxGeometry>
        </mxCell>
        <mxCell id="c9H_aWx4Ouh0dALJL8Jf-65" style="edgeStyle=orthogonalEdgeStyle;rounded=0;orthogonalLoop=1;jettySize=auto;html=1;entryX=1;entryY=0.25;entryDx=0;entryDy=0;fontStyle=0;startArrow=classic;startFill=1;jumpStyle=arc;exitX=0;exitY=0.25;exitDx=0;exitDy=0;" edge="1" parent="c9H_aWx4Ouh0dALJL8Jf-1" source="c9H_aWx4Ouh0dALJL8Jf-68" target="c9H_aWx4Ouh0dALJL8Jf-51">
          <mxGeometry relative="1" as="geometry">
            <Array as="points">
              <mxPoint x="1350" y="303" />
              <mxPoint x="1350" y="250" />
              <mxPoint x="1070" y="250" />
              <mxPoint x="1070" y="60" />
            </Array>
          </mxGeometry>
        </mxCell>
        <mxCell id="c9H_aWx4Ouh0dALJL8Jf-66" style="edgeStyle=orthogonalEdgeStyle;rounded=0;orthogonalLoop=1;jettySize=auto;html=1;entryX=1;entryY=0.5;entryDx=0;entryDy=0;exitX=0;exitY=0.5;exitDx=0;exitDy=0;startArrow=classic;startFill=1;jumpStyle=arc;endArrow=none;endFill=0;" edge="1" parent="c9H_aWx4Ouh0dALJL8Jf-1" source="c9H_aWx4Ouh0dALJL8Jf-63" target="c9H_aWx4Ouh0dALJL8Jf-28">
          <mxGeometry relative="1" as="geometry">
            <Array as="points">
              <mxPoint x="960" y="470" />
              <mxPoint x="960" y="305" />
              <mxPoint x="890" y="305" />
            </Array>
          </mxGeometry>
        </mxCell>
        <mxCell id="c9H_aWx4Ouh0dALJL8Jf-67" style="edgeStyle=orthogonalEdgeStyle;rounded=0;orthogonalLoop=1;jettySize=auto;html=1;exitX=1;exitY=0.25;exitDx=0;exitDy=0;entryX=1;entryY=0.75;entryDx=0;entryDy=0;jumpStyle=arc;" edge="1" parent="c9H_aWx4Ouh0dALJL8Jf-1" source="c9H_aWx4Ouh0dALJL8Jf-68" target="c9H_aWx4Ouh0dALJL8Jf-76">
          <mxGeometry relative="1" as="geometry">
            <Array as="points">
              <mxPoint x="1530" y="303" />
              <mxPoint x="1530" y="175" />
            </Array>
          </mxGeometry>
        </mxCell>
        <mxCell id="c9H_aWx4Ouh0dALJL8Jf-68" value="payment_validator" style="rounded=0;whiteSpace=wrap;html=1;" vertex="1" parent="c9H_aWx4Ouh0dALJL8Jf-1">
          <mxGeometry x="1370" y="290" width="120" height="50" as="geometry" />
        </mxCell>
        <mxCell id="c9H_aWx4Ouh0dALJL8Jf-69" style="edgeStyle=orthogonalEdgeStyle;rounded=0;orthogonalLoop=1;jettySize=auto;html=1;entryX=1;entryY=0.5;entryDx=0;entryDy=0;startArrow=classic;startFill=1;jumpStyle=arc;exitX=0;exitY=0.75;exitDx=0;exitDy=0;" edge="1" parent="c9H_aWx4Ouh0dALJL8Jf-1" source="c9H_aWx4Ouh0dALJL8Jf-72" target="c9H_aWx4Ouh0dALJL8Jf-49">
          <mxGeometry relative="1" as="geometry">
            <Array as="points">
              <mxPoint x="1320" y="406" />
              <mxPoint x="1320" y="83" />
            </Array>
          </mxGeometry>
        </mxCell>
        <mxCell id="c9H_aWx4Ouh0dALJL8Jf-70" style="edgeStyle=orthogonalEdgeStyle;rounded=0;orthogonalLoop=1;jettySize=auto;html=1;exitX=1;exitY=0.25;exitDx=0;exitDy=0;entryX=1;entryY=0.5;entryDx=0;entryDy=0;jumpStyle=arc;" edge="1" parent="c9H_aWx4Ouh0dALJL8Jf-1" source="c9H_aWx4Ouh0dALJL8Jf-72" target="c9H_aWx4Ouh0dALJL8Jf-76">
          <mxGeometry relative="1" as="geometry">
            <Array as="points">
              <mxPoint x="1540" y="377" />
              <mxPoint x="1540" y="160" />
            </Array>
          </mxGeometry>
        </mxCell>
        <mxCell id="c9H_aWx4Ouh0dALJL8Jf-71" style="edgeStyle=orthogonalEdgeStyle;rounded=0;orthogonalLoop=1;jettySize=auto;html=1;exitX=0;exitY=0.25;exitDx=0;exitDy=0;entryX=1;entryY=0.75;entryDx=0;entryDy=0;jumpStyle=arc;startArrow=classic;startFill=1;" edge="1" parent="c9H_aWx4Ouh0dALJL8Jf-1" source="c9H_aWx4Ouh0dALJL8Jf-72" target="c9H_aWx4Ouh0dALJL8Jf-51">
          <mxGeometry relative="1" as="geometry">
            <Array as="points">
              <mxPoint x="1340" y="377" />
              <mxPoint x="1340" y="240" />
              <mxPoint x="1040" y="240" />
              <mxPoint x="1040" y="90" />
            </Array>
          </mxGeometry>
        </mxCell>
        <mxCell id="c9H_aWx4Ouh0dALJL8Jf-72" value="access_validator" style="rounded=0;whiteSpace=wrap;html=1;" vertex="1" parent="c9H_aWx4Ouh0dALJL8Jf-1">
          <mxGeometry x="1370" y="363" width="120" height="57" as="geometry" />
        </mxCell>
        <mxCell id="c9H_aWx4Ouh0dALJL8Jf-73" style="edgeStyle=orthogonalEdgeStyle;rounded=0;orthogonalLoop=1;jettySize=auto;html=1;entryX=0.5;entryY=0;entryDx=0;entryDy=0;startArrow=classic;startFill=1;jumpStyle=arc;" edge="1" parent="c9H_aWx4Ouh0dALJL8Jf-1" source="c9H_aWx4Ouh0dALJL8Jf-76" target="c9H_aWx4Ouh0dALJL8Jf-32">
          <mxGeometry relative="1" as="geometry" />
        </mxCell>
        <mxCell id="c9H_aWx4Ouh0dALJL8Jf-74" style="edgeStyle=orthogonalEdgeStyle;rounded=0;orthogonalLoop=1;jettySize=auto;html=1;entryX=1;entryY=0.25;entryDx=0;entryDy=0;startArrow=classic;startFill=1;jumpStyle=arc;" edge="1" parent="c9H_aWx4Ouh0dALJL8Jf-1" source="c9H_aWx4Ouh0dALJL8Jf-76" target="c9H_aWx4Ouh0dALJL8Jf-44">
          <mxGeometry relative="1" as="geometry">
            <Array as="points">
              <mxPoint x="990" y="160" />
              <mxPoint x="990" y="490" />
            </Array>
          </mxGeometry>
        </mxCell>
        <mxCell id="c9H_aWx4Ouh0dALJL8Jf-75" style="edgeStyle=orthogonalEdgeStyle;rounded=0;orthogonalLoop=1;jettySize=auto;html=1;exitX=0;exitY=0.25;exitDx=0;exitDy=0;entryX=0.5;entryY=1;entryDx=0;entryDy=0;jumpStyle=arc;" edge="1" parent="c9H_aWx4Ouh0dALJL8Jf-1" source="c9H_aWx4Ouh0dALJL8Jf-76" target="c9H_aWx4Ouh0dALJL8Jf-51">
          <mxGeometry relative="1" as="geometry" />
        </mxCell>
        <mxCell id="oGEHBDg9AUB4ET5tgVXn-0" style="edgeStyle=orthogonalEdgeStyle;rounded=0;orthogonalLoop=1;jettySize=auto;html=1;exitX=0;exitY=0.75;exitDx=0;exitDy=0;entryX=0;entryY=0.75;entryDx=0;entryDy=0;jumpStyle=arc;" edge="1" parent="c9H_aWx4Ouh0dALJL8Jf-1" source="c9H_aWx4Ouh0dALJL8Jf-76" target="c9H_aWx4Ouh0dALJL8Jf-49">
          <mxGeometry relative="1" as="geometry" />
        </mxCell>
        <mxCell id="c9H_aWx4Ouh0dALJL8Jf-76" value="IC" style="rounded=0;whiteSpace=wrap;html=1;" vertex="1" parent="c9H_aWx4Ouh0dALJL8Jf-1">
          <mxGeometry x="1080" y="130" width="120" height="60" as="geometry" />
        </mxCell>
        <mxCell id="c9H_aWx4Ouh0dALJL8Jf-79" style="edgeStyle=orthogonalEdgeStyle;rounded=0;orthogonalLoop=1;jettySize=auto;html=1;entryX=0.25;entryY=1;entryDx=0;entryDy=0;jumpStyle=arc;exitX=1;exitY=0.25;exitDx=0;exitDy=0;startArrow=classic;startFill=1;endArrow=none;endFill=0;" edge="1" parent="c9H_aWx4Ouh0dALJL8Jf-1" source="c9H_aWx4Ouh0dALJL8Jf-28" target="c9H_aWx4Ouh0dALJL8Jf-51">
          <mxGeometry relative="1" as="geometry" />
        </mxCell>
        <mxCell id="c9H_aWx4Ouh0dALJL8Jf-80" style="edgeStyle=orthogonalEdgeStyle;rounded=0;orthogonalLoop=1;jettySize=auto;html=1;exitX=1;exitY=0.5;exitDx=0;exitDy=0;entryX=0.75;entryY=1;entryDx=0;entryDy=0;jumpStyle=arc;" edge="1" parent="c9H_aWx4Ouh0dALJL8Jf-1" source="c9H_aWx4Ouh0dALJL8Jf-81" target="c9H_aWx4Ouh0dALJL8Jf-76">
          <mxGeometry relative="1" as="geometry">
            <Array as="points">
              <mxPoint x="1580" y="560" />
              <mxPoint x="1580" y="220" />
              <mxPoint x="1170" y="220" />
            </Array>
          </mxGeometry>
        </mxCell>
        <mxCell id="c9H_aWx4Ouh0dALJL8Jf-81" value="data_validator" style="rounded=0;whiteSpace=wrap;html=1;" vertex="1" parent="c9H_aWx4Ouh0dALJL8Jf-1">
          <mxGeometry x="1370" y="530" width="120" height="60" as="geometry" />
        </mxCell>
        <mxCell id="c9H_aWx4Ouh0dALJL8Jf-82" style="edgeStyle=orthogonalEdgeStyle;rounded=0;orthogonalLoop=1;jettySize=auto;html=1;exitX=0.75;exitY=1;exitDx=0;exitDy=0;entryX=0.5;entryY=1;entryDx=0;entryDy=0;" edge="1" parent="c9H_aWx4Ouh0dALJL8Jf-1" source="c9H_aWx4Ouh0dALJL8Jf-28" target="c9H_aWx4Ouh0dALJL8Jf-81">
          <mxGeometry relative="1" as="geometry" />
        </mxCell>
        <mxCell id="c9H_aWx4Ouh0dALJL8Jf-83" style="edgeStyle=orthogonalEdgeStyle;rounded=0;orthogonalLoop=1;jettySize=auto;html=1;exitX=1;exitY=0.75;exitDx=0;exitDy=0;entryX=0;entryY=0.5;entryDx=0;entryDy=0;jumpStyle=arc;" edge="1" parent="c9H_aWx4Ouh0dALJL8Jf-1" source="c9H_aWx4Ouh0dALJL8Jf-49" target="c9H_aWx4Ouh0dALJL8Jf-81">
          <mxGeometry relative="1" as="geometry">
            <Array as="points">
              <mxPoint x="1200" y="100" />
              <mxPoint x="1290" y="100" />
              <mxPoint x="1290" y="560" />
            </Array>
          </mxGeometry>
        </mxCell>
        <mxCell id="c9H_aWx4Ouh0dALJL8Jf-84" value="" style="rounded=0;whiteSpace=wrap;html=1;align=left;movable=0;resizable=0;rotatable=0;deletable=0;editable=0;locked=1;connectable=0;" vertex="1" parent="c9H_aWx4Ouh0dALJL8Jf-1">
          <mxGeometry x="434" y="97.5" width="260" height="62.5" as="geometry" />
        </mxCell>
        <mxCell id="c9H_aWx4Ouh0dALJL8Jf-85" value="encoder" style="rounded=0;whiteSpace=wrap;html=1;movable=1;resizable=1;rotatable=1;deletable=1;editable=1;locked=0;connectable=1;" vertex="1" parent="c9H_aWx4Ouh0dALJL8Jf-1">
          <mxGeometry x="574" y="110" width="110" height="40" as="geometry" />
        </mxCell>
        <mxCell id="c9H_aWx4Ouh0dALJL8Jf-86" value="Сетевой модуль" style="text;html=1;align=center;verticalAlign=middle;whiteSpace=wrap;rounded=0;movable=0;resizable=0;rotatable=0;deletable=0;editable=0;locked=1;connectable=0;" vertex="1" parent="c9H_aWx4Ouh0dALJL8Jf-1">
          <mxGeometry x="430" y="70" width="100" height="30" as="geometry" />
        </mxCell>
        <mxCell id="c9H_aWx4Ouh0dALJL8Jf-87" value="decoder" style="rounded=0;whiteSpace=wrap;html=1;movable=1;resizable=1;rotatable=1;deletable=1;editable=1;locked=0;connectable=1;" vertex="1" parent="c9H_aWx4Ouh0dALJL8Jf-1">
          <mxGeometry x="444" y="110" width="110" height="40" as="geometry" />
        </mxCell>
        <mxCell id="c9H_aWx4Ouh0dALJL8Jf-88" value="Среда передачи данных" style="rounded=0;whiteSpace=wrap;html=1;movable=1;resizable=1;rotatable=1;deletable=1;editable=1;locked=0;connectable=1;" vertex="1" parent="c9H_aWx4Ouh0dALJL8Jf-1">
          <mxGeometry x="494" y="10" width="140" height="50" as="geometry" />
        </mxCell>
        <mxCell id="c9H_aWx4Ouh0dALJL8Jf-89" style="edgeStyle=orthogonalEdgeStyle;rounded=0;orthogonalLoop=1;jettySize=auto;html=1;exitX=0.25;exitY=0;exitDx=0;exitDy=0;entryX=0.767;entryY=1;entryDx=0;entryDy=0;entryPerimeter=0;movable=1;resizable=1;rotatable=1;deletable=1;editable=1;locked=0;connectable=1;" edge="1" parent="c9H_aWx4Ouh0dALJL8Jf-1" source="c9H_aWx4Ouh0dALJL8Jf-85" target="c9H_aWx4Ouh0dALJL8Jf-88">
          <mxGeometry relative="1" as="geometry" />
        </mxCell>
        <mxCell id="c9H_aWx4Ouh0dALJL8Jf-90" style="edgeStyle=orthogonalEdgeStyle;rounded=0;orthogonalLoop=1;jettySize=auto;html=1;exitX=0.25;exitY=1;exitDx=0;exitDy=0;entryX=0.773;entryY=-0.008;entryDx=0;entryDy=0;entryPerimeter=0;movable=1;resizable=1;rotatable=1;deletable=1;editable=1;locked=0;connectable=1;" edge="1" parent="c9H_aWx4Ouh0dALJL8Jf-1" source="c9H_aWx4Ouh0dALJL8Jf-88" target="c9H_aWx4Ouh0dALJL8Jf-87">
          <mxGeometry relative="1" as="geometry" />
        </mxCell>
        <mxCell id="c9H_aWx4Ouh0dALJL8Jf-102" value="&lt;div style=&quot;text-align: justify; line-height: 90%;&quot;&gt;&lt;span style=&quot;background-color: initial;&quot;&gt;&lt;font style=&quot;font-size: 9px;&quot;&gt;SS&lt;/font&gt;&lt;/span&gt;&lt;/div&gt;" style="ellipse;whiteSpace=wrap;html=1;aspect=fixed;fontSize=10;" vertex="1" parent="c9H_aWx4Ouh0dALJL8Jf-1">
          <mxGeometry x="541" y="103.53999999999995" width="18.46" height="18.46" as="geometry" />
        </mxCell>
        <mxCell id="c9H_aWx4Ouh0dALJL8Jf-103" value="&lt;div style=&quot;text-align: justify; line-height: 90%;&quot;&gt;&lt;span style=&quot;background-color: initial;&quot;&gt;&lt;font style=&quot;font-size: 9px;&quot;&gt;SS&lt;/font&gt;&lt;/span&gt;&lt;/div&gt;" style="ellipse;whiteSpace=wrap;html=1;aspect=fixed;fontSize=10;" vertex="1" parent="c9H_aWx4Ouh0dALJL8Jf-1">
          <mxGeometry x="671.54" y="103.53999999999995" width="18.46" height="18.46" as="geometry" />
        </mxCell>
        <mxCell id="c9H_aWx4Ouh0dALJL8Jf-104" value="&lt;div style=&quot;text-align: justify; line-height: 90%;&quot;&gt;&lt;span style=&quot;background-color: initial;&quot;&gt;&lt;font style=&quot;font-size: 9px;&quot;&gt;SS&lt;/font&gt;&lt;/span&gt;&lt;/div&gt;" style="ellipse;whiteSpace=wrap;html=1;aspect=fixed;fontSize=10;" vertex="1" parent="c9H_aWx4Ouh0dALJL8Jf-1">
          <mxGeometry x="1005.54" y="37" width="18.46" height="18.46" as="geometry" />
        </mxCell>
        <mxCell id="c9H_aWx4Ouh0dALJL8Jf-105" value="&lt;div style=&quot;text-align: justify; line-height: 90%;&quot;&gt;&lt;span style=&quot;background-color: initial;&quot;&gt;&lt;font style=&quot;font-size: 9px;&quot;&gt;SS&lt;/font&gt;&lt;/span&gt;&lt;/div&gt;" style="ellipse;whiteSpace=wrap;html=1;aspect=fixed;fontSize=10;" vertex="1" parent="c9H_aWx4Ouh0dALJL8Jf-1">
          <mxGeometry x="1187" y="38" width="18.46" height="18.46" as="geometry" />
        </mxCell>
        <mxCell id="c9H_aWx4Ouh0dALJL8Jf-106" value="&lt;div style=&quot;text-align: justify; line-height: 90%;&quot;&gt;&lt;font size=&quot;1&quot;&gt;MM&lt;/font&gt;&lt;/div&gt;" style="ellipse;whiteSpace=wrap;html=1;aspect=fixed;fontSize=10;" vertex="1" parent="c9H_aWx4Ouh0dALJL8Jf-1">
          <mxGeometry x="1187" y="122" width="18.46" height="18.46" as="geometry" />
        </mxCell>
        <mxCell id="c9H_aWx4Ouh0dALJL8Jf-107" value="&lt;div style=&quot;text-align: justify; line-height: 90%;&quot;&gt;&lt;span style=&quot;background-color: initial;&quot;&gt;&lt;font style=&quot;font-size: 9px;&quot;&gt;MS&lt;/font&gt;&lt;/span&gt;&lt;/div&gt;" style="ellipse;whiteSpace=wrap;html=1;aspect=fixed;fontSize=10;" vertex="1" parent="c9H_aWx4Ouh0dALJL8Jf-1">
          <mxGeometry x="1455.77" y="280.7699999999999" width="18.46" height="18.46" as="geometry" />
        </mxCell>
        <mxCell id="c9H_aWx4Ouh0dALJL8Jf-108" value="&lt;div style=&quot;text-align: justify; line-height: 90%;&quot;&gt;&lt;span style=&quot;background-color: initial;&quot;&gt;&lt;font style=&quot;font-size: 9px;&quot;&gt;MS&lt;/font&gt;&lt;/span&gt;&lt;/div&gt;" style="ellipse;whiteSpace=wrap;html=1;aspect=fixed;fontSize=10;" vertex="1" parent="c9H_aWx4Ouh0dALJL8Jf-1">
          <mxGeometry x="1455.77" y="355.7699999999999" width="18.46" height="18.46" as="geometry" />
        </mxCell>
        <mxCell id="c9H_aWx4Ouh0dALJL8Jf-109" value="&lt;div style=&quot;text-align: justify; line-height: 90%;&quot;&gt;&lt;span style=&quot;background-color: initial;&quot;&gt;&lt;font style=&quot;font-size: 9px;&quot;&gt;MS&lt;/font&gt;&lt;/span&gt;&lt;/div&gt;" style="ellipse;whiteSpace=wrap;html=1;aspect=fixed;fontSize=10;" vertex="1" parent="c9H_aWx4Ouh0dALJL8Jf-1">
          <mxGeometry x="1455.77" y="432.99999999999994" width="18.46" height="18.46" as="geometry" />
        </mxCell>
        <mxCell id="c9H_aWx4Ouh0dALJL8Jf-110" value="&lt;div style=&quot;text-align: justify; line-height: 90%;&quot;&gt;&lt;span style=&quot;background-color: initial;&quot;&gt;&lt;font style=&quot;font-size: 9px;&quot;&gt;SM&lt;/font&gt;&lt;/span&gt;&lt;/div&gt;" style="ellipse;whiteSpace=wrap;html=1;aspect=fixed;fontSize=10;" vertex="1" parent="c9H_aWx4Ouh0dALJL8Jf-1">
          <mxGeometry x="1455.77" y="523.77" width="18.46" height="18.46" as="geometry" />
        </mxCell>
        <mxCell id="c9H_aWx4Ouh0dALJL8Jf-111" value="&lt;div style=&quot;text-align: justify; line-height: 90%;&quot;&gt;&lt;span style=&quot;background-color: initial;&quot;&gt;&lt;font style=&quot;font-size: 9px;&quot;&gt;SS&lt;/font&gt;&lt;/span&gt;&lt;/div&gt;" style="ellipse;whiteSpace=wrap;html=1;aspect=fixed;fontSize=10;" vertex="1" parent="c9H_aWx4Ouh0dALJL8Jf-1">
          <mxGeometry x="1213" y="353.77" width="18.46" height="18.46" as="geometry" />
        </mxCell>
        <mxCell id="c9H_aWx4Ouh0dALJL8Jf-112" value="&lt;div style=&quot;text-align: justify; line-height: 90%;&quot;&gt;&lt;span style=&quot;background-color: initial;&quot;&gt;&lt;font style=&quot;font-size: 9px;&quot;&gt;SS&lt;/font&gt;&lt;/span&gt;&lt;/div&gt;" style="ellipse;whiteSpace=wrap;html=1;aspect=fixed;fontSize=10;" vertex="1" parent="c9H_aWx4Ouh0dALJL8Jf-1">
          <mxGeometry x="1093" y="356.7699999999999" width="18.46" height="18.46" as="geometry" />
        </mxCell>
        <mxCell id="c9H_aWx4Ouh0dALJL8Jf-113" value="&lt;div style=&quot;text-align: justify; line-height: 90%;&quot;&gt;&lt;font size=&quot;1&quot;&gt;MM&lt;/font&gt;&lt;/div&gt;" style="ellipse;whiteSpace=wrap;html=1;aspect=fixed;fontSize=10;" vertex="1" parent="c9H_aWx4Ouh0dALJL8Jf-1">
          <mxGeometry x="877" y="231.54" width="18.46" height="18.46" as="geometry" />
        </mxCell>
      </root>
    </mxGraphModel>
  </diagram>
  <diagram id="tC8IsyUxsJW65AZxewQn" name="sec_arch">
    <mxGraphModel grid="1" page="1" gridSize="10" guides="1" tooltips="1" connect="1" arrows="1" fold="1" pageScale="1" pageWidth="2500" pageHeight="2500" math="0" shadow="0">
      <root>
        <mxCell id="0" />
        <mxCell id="1" parent="0" />
        <mxCell id="SrsCirZEcUBZI99fBKNt-1" value="" style="rounded=0;whiteSpace=wrap;html=1;labelBackgroundColor=none;align=right;labelPosition=left;verticalLabelPosition=top;verticalAlign=bottom;movable=0;resizable=0;rotatable=0;deletable=0;editable=0;locked=1;connectable=0;" vertex="1" parent="1">
          <mxGeometry x="210" width="1430" height="700" as="geometry" />
        </mxCell>
        <mxCell id="SrsCirZEcUBZI99fBKNt-3" value="Мобильное&lt;br&gt;приложение&lt;br&gt;клиента" style="rounded=0;whiteSpace=wrap;html=1;labelBackgroundColor=none;fillColor=#f8cecc;strokeColor=#b85450;" vertex="1" parent="1">
          <mxGeometry x="1080" y="-200" width="120" height="60" as="geometry" />
        </mxCell>
        <mxCell id="SrsCirZEcUBZI99fBKNt-7" value="Система&lt;br&gt;управления парком&lt;br&gt;автомобилей" style="rounded=0;whiteSpace=wrap;html=1;labelBackgroundColor=none;fillColor=#f8cecc;strokeColor=#b85450;" vertex="1" parent="1">
          <mxGeometry x="840" y="-200" width="120" height="60" as="geometry" />
        </mxCell>
        <mxCell id="SrsCirZEcUBZI99fBKNt-8" style="edgeStyle=none;html=1;entryX=0.5;entryY=0;entryDx=0;entryDy=0;startArrow=classic;startFill=1;labelBackgroundColor=none;fontColor=default;fillColor=#f8cecc;strokeColor=#b85450;" edge="1" parent="1" source="SrsCirZEcUBZI99fBKNt-9" target="SrsCirZEcUBZI99fBKNt-3">
          <mxGeometry relative="1" as="geometry" />
        </mxCell>
        <mxCell id="SrsCirZEcUBZI99fBKNt-9" value="Клиент" style="shape=umlActor;verticalLabelPosition=bottom;verticalAlign=top;html=1;outlineConnect=0;labelBackgroundColor=none;fillColor=#f8cecc;strokeColor=#b85450;" vertex="1" parent="1">
          <mxGeometry x="1125" y="-400" width="30" height="60" as="geometry" />
        </mxCell>
        <mxCell id="cM-bwy7ixKBUzdzMkt_z-5" value="" style="group" connectable="0" vertex="1" parent="1">
          <mxGeometry x="210" y="250" width="450" height="220" as="geometry" />
        </mxCell>
        <mxCell id="cM-bwy7ixKBUzdzMkt_z-21" value="" style="group" connectable="0" vertex="1" parent="cM-bwy7ixKBUzdzMkt_z-5">
          <mxGeometry x="60" width="360" height="140" as="geometry" />
        </mxCell>
        <mxCell id="cM-bwy7ixKBUzdzMkt_z-6" value="Модули технической готовности" style="rounded=0;whiteSpace=wrap;html=1;labelPosition=center;verticalLabelPosition=top;align=left;verticalAlign=bottom;" vertex="1" parent="cM-bwy7ixKBUzdzMkt_z-21">
          <mxGeometry width="360" height="140" as="geometry" />
        </mxCell>
        <mxCell id="cM-bwy7ixKBUzdzMkt_z-1" value="headlights" style="rounded=0;whiteSpace=wrap;html=1;fillColor=#f8cecc;strokeColor=#b85450;" vertex="1" parent="cM-bwy7ixKBUzdzMkt_z-21">
          <mxGeometry x="200" y="20.00478518518519" width="140" height="32.592592592592595" as="geometry" />
        </mxCell>
        <mxCell id="cM-bwy7ixKBUzdzMkt_z-3" value="vehicle_braking" style="rounded=0;whiteSpace=wrap;html=1;fillColor=#f8cecc;strokeColor=#b85450;" vertex="1" parent="cM-bwy7ixKBUzdzMkt_z-21">
          <mxGeometry x="30" y="83.69967407407408" width="140" height="32.592592592592595" as="geometry" />
        </mxCell>
        <mxCell id="cM-bwy7ixKBUzdzMkt_z-2" value="tire_sensors" style="rounded=0;whiteSpace=wrap;html=1;fillColor=#f8cecc;strokeColor=#b85450;" vertex="1" parent="cM-bwy7ixKBUzdzMkt_z-21">
          <mxGeometry x="30" y="20.0086962962963" width="140" height="32.592592592592595" as="geometry" />
        </mxCell>
        <mxCell id="cM-bwy7ixKBUzdzMkt_z-4" value="fuel_tank" style="rounded=0;whiteSpace=wrap;html=1;fillColor=#f8cecc;strokeColor=#b85450;" vertex="1" parent="cM-bwy7ixKBUzdzMkt_z-21">
          <mxGeometry x="200" y="83.70576296296301" width="140" height="32.592592592592595" as="geometry" />
        </mxCell>
        <mxCell id="x0_LvxWvrZfBi2gnfUxq-7" value="&lt;div style=&quot;text-align: justify; line-height: 90%;&quot;&gt;&lt;span style=&quot;background-color: initial;&quot;&gt;&lt;font style=&quot;font-size: 9px;&quot;&gt;SS&lt;/font&gt;&lt;/span&gt;&lt;/div&gt;" style="ellipse;whiteSpace=wrap;html=1;aspect=fixed;strokeColor=#b85450;fontSize=10;fillColor=#f8cecc;" vertex="1" parent="cM-bwy7ixKBUzdzMkt_z-21">
          <mxGeometry x="156.53999999999996" y="13" width="18.46" height="18.46" as="geometry" />
        </mxCell>
        <mxCell id="x0_LvxWvrZfBi2gnfUxq-8" value="&lt;div style=&quot;text-align: justify; line-height: 90%;&quot;&gt;&lt;span style=&quot;background-color: initial;&quot;&gt;&lt;font style=&quot;font-size: 9px;&quot;&gt;SS&lt;/font&gt;&lt;/span&gt;&lt;/div&gt;" style="ellipse;whiteSpace=wrap;html=1;aspect=fixed;strokeColor=#b85450;fontSize=10;fillColor=#f8cecc;" vertex="1" parent="cM-bwy7ixKBUzdzMkt_z-21">
          <mxGeometry x="156.53999999999996" y="77" width="18.46" height="18.46" as="geometry" />
        </mxCell>
        <mxCell id="x0_LvxWvrZfBi2gnfUxq-9" value="&lt;div style=&quot;text-align: justify; line-height: 90%;&quot;&gt;&lt;span style=&quot;background-color: initial;&quot;&gt;&lt;font style=&quot;font-size: 9px;&quot;&gt;SS&lt;/font&gt;&lt;/span&gt;&lt;/div&gt;" style="ellipse;whiteSpace=wrap;html=1;aspect=fixed;strokeColor=#b85450;fontSize=10;fillColor=#f8cecc;" vertex="1" parent="cM-bwy7ixKBUzdzMkt_z-21">
          <mxGeometry x="327" y="12" width="18.46" height="18.46" as="geometry" />
        </mxCell>
        <mxCell id="x0_LvxWvrZfBi2gnfUxq-10" value="&lt;div style=&quot;text-align: justify; line-height: 90%;&quot;&gt;&lt;span style=&quot;background-color: initial;&quot;&gt;&lt;font style=&quot;font-size: 9px;&quot;&gt;SS&lt;/font&gt;&lt;/span&gt;&lt;/div&gt;" style="ellipse;whiteSpace=wrap;html=1;aspect=fixed;strokeColor=#b85450;fontSize=10;fillColor=#f8cecc;" vertex="1" parent="cM-bwy7ixKBUzdzMkt_z-21">
          <mxGeometry x="327.53999999999996" y="78" width="18.46" height="18.46" as="geometry" />
        </mxCell>
        <mxCell id="GYNVlU0Ag2Xpllhi0Uht-14" value="" style="group;movable=1;resizable=1;rotatable=1;deletable=1;editable=1;locked=0;connectable=1;" connectable="0" vertex="1" parent="1">
          <mxGeometry x="230" y="20" width="120" height="130" as="geometry" />
        </mxCell>
        <mxCell id="GYNVlU0Ag2Xpllhi0Uht-2" style="edgeStyle=orthogonalEdgeStyle;rounded=0;orthogonalLoop=1;jettySize=auto;html=1;exitX=0.25;exitY=1;exitDx=0;exitDy=0;entryX=0.25;entryY=0;entryDx=0;entryDy=0;fillColor=#d5e8d4;strokeColor=#82b366;movable=0;resizable=0;rotatable=0;deletable=0;editable=0;locked=1;connectable=0;" edge="1" parent="GYNVlU0Ag2Xpllhi0Uht-14" source="GYNVlU0Ag2Xpllhi0Uht-3" target="GYNVlU0Ag2Xpllhi0Uht-5">
          <mxGeometry relative="1" as="geometry" />
        </mxCell>
        <mxCell id="GYNVlU0Ag2Xpllhi0Uht-3" value="Брокер сообщений" style="rounded=0;whiteSpace=wrap;html=1;fillColor=#d5e8d4;strokeColor=#82b366;movable=1;resizable=1;rotatable=1;deletable=1;editable=1;locked=0;connectable=1;" vertex="1" parent="GYNVlU0Ag2Xpllhi0Uht-14">
          <mxGeometry width="120" height="50" as="geometry" />
        </mxCell>
        <mxCell id="GYNVlU0Ag2Xpllhi0Uht-4" style="edgeStyle=orthogonalEdgeStyle;rounded=0;orthogonalLoop=1;jettySize=auto;html=1;exitX=0.75;exitY=0;exitDx=0;exitDy=0;entryX=0.75;entryY=1;entryDx=0;entryDy=0;fillColor=#d5e8d4;strokeColor=#82b366;movable=0;resizable=0;rotatable=0;deletable=0;editable=0;locked=1;connectable=0;" edge="1" parent="GYNVlU0Ag2Xpllhi0Uht-14" source="GYNVlU0Ag2Xpllhi0Uht-5" target="GYNVlU0Ag2Xpllhi0Uht-3">
          <mxGeometry relative="1" as="geometry" />
        </mxCell>
        <mxCell id="GYNVlU0Ag2Xpllhi0Uht-5" value="Монитор безопасности" style="rounded=0;whiteSpace=wrap;html=1;fillColor=#d5e8d4;strokeColor=#82b366;movable=0;resizable=0;rotatable=0;deletable=0;editable=0;locked=1;connectable=0;" vertex="1" parent="GYNVlU0Ag2Xpllhi0Uht-14">
          <mxGeometry y="80" width="120" height="50" as="geometry" />
        </mxCell>
        <mxCell id="SrsCirZEcUBZI99fBKNt-4" style="edgeStyle=none;html=1;startArrow=classic;startFill=1;labelBackgroundColor=none;fontColor=default;fillColor=#f8cecc;strokeColor=#b85450;" edge="1" parent="1" source="SrsCirZEcUBZI99fBKNt-7" target="SrsCirZEcUBZI99fBKNt-3">
          <mxGeometry relative="1" as="geometry" />
        </mxCell>
        <mxCell id="SrsCirZEcUBZI99fBKNt-5" value="" style="edgeStyle=none;html=1;startArrow=classic;startFill=1;labelBackgroundColor=none;fontColor=default;fillColor=#f8cecc;strokeColor=#b85450;" edge="1" parent="1" source="SrsCirZEcUBZI99fBKNt-7" target="SrsCirZEcUBZI99fBKNt-11">
          <mxGeometry relative="1" as="geometry" />
        </mxCell>
        <mxCell id="SrsCirZEcUBZI99fBKNt-10" style="edgeStyle=orthogonalEdgeStyle;rounded=0;orthogonalLoop=1;jettySize=auto;html=1;entryX=0;entryY=0.25;entryDx=0;entryDy=0;startArrow=classic;startFill=1;fillColor=#f8cecc;strokeColor=#b85450;" edge="1" parent="1" source="SrsCirZEcUBZI99fBKNt-11" target="SrsCirZEcUBZI99fBKNt-3">
          <mxGeometry relative="1" as="geometry" />
        </mxCell>
        <mxCell id="SrsCirZEcUBZI99fBKNt-11" value="Система&lt;br&gt;оплаты услуг" style="rounded=0;whiteSpace=wrap;html=1;labelBackgroundColor=none;fillColor=#f8cecc;strokeColor=#b85450;" vertex="1" parent="1">
          <mxGeometry x="840" y="-350" width="120" height="60" as="geometry" />
        </mxCell>
        <mxCell id="SrsCirZEcUBZI99fBKNt-12" value="Автомобиль" style="text;html=1;align=center;verticalAlign=middle;whiteSpace=wrap;rounded=0;" vertex="1" parent="1">
          <mxGeometry x="210" y="-30" width="60" height="30" as="geometry" />
        </mxCell>
        <mxCell id="SrsCirZEcUBZI99fBKNt-15" value="eblocks" style="rounded=0;whiteSpace=wrap;html=1;fillColor=#f8cecc;strokeColor=#b85450;" vertex="1" parent="1">
          <mxGeometry x="769.5" y="240" width="120" height="110" as="geometry" />
        </mxCell>
        <mxCell id="SrsCirZEcUBZI99fBKNt-17" value="IoT система" style="rounded=0;whiteSpace=wrap;html=1;labelPosition=center;verticalLabelPosition=top;align=center;verticalAlign=bottom;" vertex="1" parent="1">
          <mxGeometry x="870" y="25" width="360" height="170" as="geometry" />
        </mxCell>
        <mxCell id="SrsCirZEcUBZI99fBKNt-19" value="Модуль управления дверьми" style="rounded=0;whiteSpace=wrap;html=1;labelPosition=center;verticalLabelPosition=top;align=left;verticalAlign=bottom;" vertex="1" parent="1">
          <mxGeometry x="1012" y="330" width="240" height="110" as="geometry" />
        </mxCell>
        <mxCell id="SrsCirZEcUBZI99fBKNt-55" style="edgeStyle=orthogonalEdgeStyle;rounded=0;orthogonalLoop=1;jettySize=auto;html=1;entryX=1;entryY=0.5;entryDx=0;entryDy=0;jumpStyle=arc;fillColor=#fff2cc;strokeColor=#d6b656;" edge="1" parent="1" source="ijWir7-l20e8-UUd4Drd-4" target="SrsCirZEcUBZI99fBKNt-15">
          <mxGeometry relative="1" as="geometry">
            <Array as="points">
              <mxPoint x="937" y="385" />
              <mxPoint x="937" y="295" />
            </Array>
          </mxGeometry>
        </mxCell>
        <mxCell id="ijWir7-l20e8-UUd4Drd-4" value="doors_controller" style="rounded=0;whiteSpace=wrap;html=1;fillColor=#fff2cc;strokeColor=#d6b656;" vertex="1" parent="1">
          <mxGeometry x="1027" y="365" width="93" height="40" as="geometry" />
        </mxCell>
        <mxCell id="GYNVlU0Ag2Xpllhi0Uht-32" value="" style="group" connectable="0" vertex="1" parent="1">
          <mxGeometry x="927" y="510" width="290" height="80" as="geometry" />
        </mxCell>
        <mxCell id="GYNVlU0Ag2Xpllhi0Uht-29" value="Модуль навигации" style="rounded=0;whiteSpace=wrap;html=1;labelPosition=center;verticalLabelPosition=top;align=left;verticalAlign=bottom;" vertex="1" parent="GYNVlU0Ag2Xpllhi0Uht-32">
          <mxGeometry width="290" height="80" as="geometry" />
        </mxCell>
        <mxCell id="ijWir7-l20e8-UUd4Drd-1" value="gps" style="rounded=0;whiteSpace=wrap;html=1;fillColor=#f8cecc;strokeColor=#b85450;" vertex="1" parent="GYNVlU0Ag2Xpllhi0Uht-32">
          <mxGeometry x="160" y="15" width="120" height="50" as="geometry" />
        </mxCell>
        <mxCell id="GYNVlU0Ag2Xpllhi0Uht-26" value="navigation_handler" style="rounded=0;whiteSpace=wrap;html=1;fillColor=#f8cecc;strokeColor=#b85450;" vertex="1" parent="GYNVlU0Ag2Xpllhi0Uht-32">
          <mxGeometry x="10" y="15" width="120" height="50" as="geometry" />
        </mxCell>
        <mxCell id="GYNVlU0Ag2Xpllhi0Uht-28" style="edgeStyle=orthogonalEdgeStyle;rounded=0;orthogonalLoop=1;jettySize=auto;html=1;exitX=0;exitY=0.5;exitDx=0;exitDy=0;entryX=1;entryY=0.5;entryDx=0;entryDy=0;fillColor=#f8cecc;strokeColor=#b85450;" edge="1" parent="GYNVlU0Ag2Xpllhi0Uht-32" source="ijWir7-l20e8-UUd4Drd-1" target="GYNVlU0Ag2Xpllhi0Uht-26">
          <mxGeometry relative="1" as="geometry" />
        </mxCell>
        <mxCell id="x0_LvxWvrZfBi2gnfUxq-16" value="&lt;div style=&quot;text-align: justify; line-height: 90%;&quot;&gt;&lt;span style=&quot;background-color: initial;&quot;&gt;&lt;font style=&quot;font-size: 9px;&quot;&gt;SS&lt;/font&gt;&lt;/span&gt;&lt;/div&gt;" style="ellipse;whiteSpace=wrap;html=1;aspect=fixed;strokeColor=#b85450;fontSize=10;fillColor=#f8cecc;" vertex="1" parent="GYNVlU0Ag2Xpllhi0Uht-32">
          <mxGeometry x="266.53999999999996" y="8" width="18.46" height="18.46" as="geometry" />
        </mxCell>
        <mxCell id="x0_LvxWvrZfBi2gnfUxq-17" value="&lt;div style=&quot;text-align: justify; line-height: 90%;&quot;&gt;&lt;span style=&quot;background-color: initial;&quot;&gt;&lt;font style=&quot;font-size: 9px;&quot;&gt;MS&lt;/font&gt;&lt;/span&gt;&lt;/div&gt;" style="ellipse;whiteSpace=wrap;html=1;aspect=fixed;strokeColor=#b85450;fontSize=10;fillColor=#f8cecc;" vertex="1" parent="GYNVlU0Ag2Xpllhi0Uht-32">
          <mxGeometry x="115.53999999999996" y="8" width="18.46" height="18.46" as="geometry" />
        </mxCell>
        <mxCell id="GYNVlU0Ag2Xpllhi0Uht-34" style="edgeStyle=orthogonalEdgeStyle;rounded=0;orthogonalLoop=1;jettySize=auto;html=1;exitX=0;exitY=0.5;exitDx=0;exitDy=0;fillColor=#f8cecc;strokeColor=#b85450;entryX=1;entryY=1;entryDx=0;entryDy=0;" edge="1" parent="1" source="GYNVlU0Ag2Xpllhi0Uht-26" target="SrsCirZEcUBZI99fBKNt-15">
          <mxGeometry relative="1" as="geometry">
            <mxPoint x="957" y="290" as="targetPoint" />
            <Array as="points">
              <mxPoint x="910" y="550" />
              <mxPoint x="910" y="350" />
            </Array>
          </mxGeometry>
        </mxCell>
        <mxCell id="GYNVlU0Ag2Xpllhi0Uht-43" value="" style="group;fillColor=#fff2cc;strokeColor=#d6b656;" connectable="0" vertex="1" parent="1">
          <mxGeometry x="667" y="460" width="170" height="140" as="geometry" />
        </mxCell>
        <mxCell id="GYNVlU0Ag2Xpllhi0Uht-36" value="Модуль управления двигателем" style="rounded=0;whiteSpace=wrap;html=1;labelPosition=center;verticalLabelPosition=top;align=left;verticalAlign=bottom;" vertex="1" parent="GYNVlU0Ag2Xpllhi0Uht-43">
          <mxGeometry width="170" height="140" as="geometry" />
        </mxCell>
        <mxCell id="GYNVlU0Ag2Xpllhi0Uht-37" value="engine" style="rounded=0;whiteSpace=wrap;html=1;fillColor=#f8cecc;strokeColor=#b85450;" vertex="1" parent="GYNVlU0Ag2Xpllhi0Uht-43">
          <mxGeometry x="25" y="90" width="120" height="40" as="geometry" />
        </mxCell>
        <mxCell id="GYNVlU0Ag2Xpllhi0Uht-38" value="engine_controller" style="rounded=0;whiteSpace=wrap;html=1;fillColor=#fff2cc;strokeColor=#d6b656;" vertex="1" parent="GYNVlU0Ag2Xpllhi0Uht-43">
          <mxGeometry x="25" y="20" width="120" height="40" as="geometry" />
        </mxCell>
        <mxCell id="GYNVlU0Ag2Xpllhi0Uht-42" style="edgeStyle=orthogonalEdgeStyle;rounded=0;orthogonalLoop=1;jettySize=auto;html=1;exitX=0.5;exitY=0;exitDx=0;exitDy=0;entryX=0.5;entryY=1;entryDx=0;entryDy=0;fillColor=#f8cecc;strokeColor=#b85450;" edge="1" parent="GYNVlU0Ag2Xpllhi0Uht-43">
          <mxGeometry relative="1" as="geometry">
            <mxPoint x="84" y="90" as="sourcePoint" />
            <mxPoint x="84" y="60" as="targetPoint" />
          </mxGeometry>
        </mxCell>
        <mxCell id="x0_LvxWvrZfBi2gnfUxq-18" value="&lt;div style=&quot;text-align: justify; line-height: 90%;&quot;&gt;&lt;span style=&quot;background-color: initial;&quot;&gt;&lt;font style=&quot;font-size: 9px;&quot;&gt;SS&lt;/font&gt;&lt;/span&gt;&lt;/div&gt;" style="ellipse;whiteSpace=wrap;html=1;aspect=fixed;strokeColor=#b85450;fontSize=10;fillColor=#f8cecc;" vertex="1" parent="GYNVlU0Ag2Xpllhi0Uht-43">
          <mxGeometry x="132" y="83" width="18.46" height="18.46" as="geometry" />
        </mxCell>
        <mxCell id="x0_LvxWvrZfBi2gnfUxq-19" value="&lt;div style=&quot;text-align: justify; line-height: 90%;&quot;&gt;&lt;span style=&quot;background-color: initial;&quot;&gt;&lt;font style=&quot;font-size: 9px;&quot;&gt;MS&lt;/font&gt;&lt;/span&gt;&lt;/div&gt;" style="ellipse;whiteSpace=wrap;html=1;aspect=fixed;strokeColor=#d6b656;fontSize=10;fillColor=#fff2cc;" vertex="1" parent="GYNVlU0Ag2Xpllhi0Uht-43">
          <mxGeometry x="130" y="10.999999999999943" width="18.46" height="18.46" as="geometry" />
        </mxCell>
        <mxCell id="GYNVlU0Ag2Xpllhi0Uht-45" style="edgeStyle=orthogonalEdgeStyle;rounded=0;orthogonalLoop=1;jettySize=auto;html=1;exitX=0.5;exitY=0;exitDx=0;exitDy=0;entryX=0.5;entryY=1;entryDx=0;entryDy=0;fillColor=#f8cecc;strokeColor=#b85450;startArrow=none;startFill=0;" edge="1" parent="1" source="GYNVlU0Ag2Xpllhi0Uht-38" target="SrsCirZEcUBZI99fBKNt-15">
          <mxGeometry relative="1" as="geometry" />
        </mxCell>
        <mxCell id="qolxHTYViuurVHBMNkw9-1" style="edgeStyle=orthogonalEdgeStyle;rounded=0;orthogonalLoop=1;jettySize=auto;html=1;entryX=0.5;entryY=0;entryDx=0;entryDy=0;fillColor=#f8cecc;strokeColor=#b85450;jumpStyle=arc;" edge="1" parent="1" source="SrsCirZEcUBZI99fBKNt-26" target="SrsCirZEcUBZI99fBKNt-15">
          <mxGeometry relative="1" as="geometry">
            <mxPoint x="970" y="270" as="targetPoint" />
            <Array as="points">
              <mxPoint x="1050" y="82" />
              <mxPoint x="1050" y="170" />
              <mxPoint x="830" y="170" />
            </Array>
          </mxGeometry>
        </mxCell>
        <mxCell id="SrsCirZEcUBZI99fBKNt-26" value="Conn_with_mob_app" style="rounded=0;whiteSpace=wrap;html=1;fillColor=#f8cecc;strokeColor=#b85450;" vertex="1" parent="1">
          <mxGeometry x="1082" y="45" width="120" height="75" as="geometry" />
        </mxCell>
        <mxCell id="GYNVlU0Ag2Xpllhi0Uht-21" style="edgeStyle=orthogonalEdgeStyle;rounded=0;orthogonalLoop=1;jettySize=auto;html=1;exitX=0.25;exitY=1;exitDx=0;exitDy=0;fillColor=#f8cecc;strokeColor=#b85450;entryX=0.25;entryY=0;entryDx=0;entryDy=0;startArrow=none;startFill=0;" edge="1" parent="1" source="SrsCirZEcUBZI99fBKNt-3" target="SrsCirZEcUBZI99fBKNt-26">
          <mxGeometry relative="1" as="geometry">
            <mxPoint x="939.9655172413793" y="89.99999999999955" as="targetPoint" />
          </mxGeometry>
        </mxCell>
        <mxCell id="SrsCirZEcUBZI99fBKNt-27" value="Conn_with_&lt;div&gt;manag_sys&lt;/div&gt;" style="rounded=0;whiteSpace=wrap;html=1;fillColor=#f8cecc;strokeColor=#b85450;" vertex="1" parent="1">
          <mxGeometry x="900" y="45" width="120" height="60" as="geometry" />
        </mxCell>
        <mxCell id="SrsCirZEcUBZI99fBKNt-6" style="edgeStyle=orthogonalEdgeStyle;rounded=0;orthogonalLoop=1;jettySize=auto;html=1;exitX=0.75;exitY=1;exitDx=0;exitDy=0;startArrow=none;startFill=0;entryX=0.556;entryY=0.036;entryDx=0;entryDy=0;fillColor=#f8cecc;strokeColor=#b85450;entryPerimeter=0;" edge="1" parent="1" source="SrsCirZEcUBZI99fBKNt-7" target="SrsCirZEcUBZI99fBKNt-27">
          <mxGeometry relative="1" as="geometry">
            <mxPoint x="880" y="70" as="targetPoint" />
          </mxGeometry>
        </mxCell>
        <mxCell id="SrsCirZEcUBZI99fBKNt-29" style="edgeStyle=orthogonalEdgeStyle;rounded=0;orthogonalLoop=1;jettySize=auto;html=1;fillColor=#f8cecc;strokeColor=#b85450;entryX=0.25;entryY=0;entryDx=0;entryDy=0;" edge="1" parent="1" source="cM-bwy7ixKBUzdzMkt_z-2" target="SrsCirZEcUBZI99fBKNt-15">
          <mxGeometry relative="1" as="geometry">
            <mxPoint x="800" y="290" as="targetPoint" />
            <Array as="points">
              <mxPoint x="370" y="210" />
              <mxPoint x="800" y="210" />
              <mxPoint x="800" y="240" />
            </Array>
          </mxGeometry>
        </mxCell>
        <mxCell id="SrsCirZEcUBZI99fBKNt-30" style="edgeStyle=orthogonalEdgeStyle;rounded=0;orthogonalLoop=1;jettySize=auto;html=1;entryX=0;entryY=0.25;entryDx=0;entryDy=0;fillColor=#f8cecc;strokeColor=#b85450;startArrow=classic;startFill=1;" edge="1" parent="1" source="cM-bwy7ixKBUzdzMkt_z-1" target="SrsCirZEcUBZI99fBKNt-15">
          <mxGeometry relative="1" as="geometry">
            <Array as="points">
              <mxPoint x="706" y="283" />
            </Array>
          </mxGeometry>
        </mxCell>
        <mxCell id="SrsCirZEcUBZI99fBKNt-31" style="edgeStyle=orthogonalEdgeStyle;rounded=0;orthogonalLoop=1;jettySize=auto;html=1;entryX=0;entryY=0.5;entryDx=0;entryDy=0;fillColor=#f8cecc;strokeColor=#b85450;startArrow=classic;startFill=1;" edge="1" parent="1" source="cM-bwy7ixKBUzdzMkt_z-4" target="SrsCirZEcUBZI99fBKNt-15">
          <mxGeometry relative="1" as="geometry" />
        </mxCell>
        <mxCell id="SrsCirZEcUBZI99fBKNt-32" style="edgeStyle=orthogonalEdgeStyle;rounded=0;orthogonalLoop=1;jettySize=auto;html=1;exitX=0.5;exitY=1;exitDx=0;exitDy=0;fillColor=#f8cecc;strokeColor=#b85450;entryX=0.007;entryY=0.803;entryDx=0;entryDy=0;entryPerimeter=0;" edge="1" parent="1" source="cM-bwy7ixKBUzdzMkt_z-3" target="SrsCirZEcUBZI99fBKNt-15">
          <mxGeometry relative="1" as="geometry">
            <mxPoint x="760" y="350" as="targetPoint" />
            <Array as="points">
              <mxPoint x="370" y="410" />
              <mxPoint x="730" y="410" />
              <mxPoint x="730" y="328" />
              <mxPoint x="770" y="328" />
            </Array>
          </mxGeometry>
        </mxCell>
        <mxCell id="SrsCirZEcUBZI99fBKNt-33" value="locking_device" style="rounded=0;whiteSpace=wrap;html=1;fillColor=#f8cecc;strokeColor=#b85450;" vertex="1" parent="1">
          <mxGeometry x="1147" y="362.5" width="93" height="45" as="geometry" />
        </mxCell>
        <mxCell id="SrsCirZEcUBZI99fBKNt-36" value="" style="endArrow=classic;html=1;rounded=0;exitX=1;exitY=0.5;exitDx=0;exitDy=0;entryX=0;entryY=0.5;entryDx=0;entryDy=0;fillColor=#fff2cc;strokeColor=#d6b656;" edge="1" parent="1" source="ijWir7-l20e8-UUd4Drd-4" target="SrsCirZEcUBZI99fBKNt-33">
          <mxGeometry width="50" height="50" relative="1" as="geometry">
            <mxPoint x="1157" y="310" as="sourcePoint" />
            <mxPoint x="1207" y="260" as="targetPoint" />
          </mxGeometry>
        </mxCell>
        <mxCell id="SrsCirZEcUBZI99fBKNt-37" value="Модуль валидации" style="rounded=0;whiteSpace=wrap;html=1;labelPosition=center;verticalLabelPosition=top;align=center;verticalAlign=bottom;" vertex="1" parent="1">
          <mxGeometry x="1346" y="273" width="254" height="327" as="geometry" />
        </mxCell>
        <mxCell id="SrsCirZEcUBZI99fBKNt-45" style="edgeStyle=orthogonalEdgeStyle;rounded=0;orthogonalLoop=1;jettySize=auto;html=1;entryX=1;entryY=0.5;entryDx=0;entryDy=0;exitX=1;exitY=0.5;exitDx=0;exitDy=0;fillColor=#fff2cc;strokeColor=#d6b656;" edge="1" parent="1" source="SrsCirZEcUBZI99fBKNt-38" target="SrsCirZEcUBZI99fBKNt-40">
          <mxGeometry relative="1" as="geometry" />
        </mxCell>
        <mxCell id="SrsCirZEcUBZI99fBKNt-46" style="edgeStyle=orthogonalEdgeStyle;rounded=0;orthogonalLoop=1;jettySize=auto;html=1;entryX=1;entryY=0.5;entryDx=0;entryDy=0;fillColor=#fff2cc;strokeColor=#d6b656;" edge="1" parent="1" source="SrsCirZEcUBZI99fBKNt-38" target="SrsCirZEcUBZI99fBKNt-39">
          <mxGeometry relative="1" as="geometry">
            <Array as="points">
              <mxPoint x="1500" y="490" />
              <mxPoint x="1500" y="315" />
            </Array>
          </mxGeometry>
        </mxCell>
        <mxCell id="pZWLnCbVXov4Uf6PaFGh-3" style="edgeStyle=orthogonalEdgeStyle;rounded=0;orthogonalLoop=1;jettySize=auto;html=1;exitX=0.5;exitY=1;exitDx=0;exitDy=0;entryX=1;entryY=0.25;entryDx=0;entryDy=0;jumpStyle=arc;fillColor=#fff2cc;strokeColor=#d6b656;" edge="1" parent="1" source="SrsCirZEcUBZI99fBKNt-38" target="SrsCirZEcUBZI99fBKNt-41">
          <mxGeometry relative="1" as="geometry">
            <Array as="points">
              <mxPoint x="1420" y="520" />
              <mxPoint x="1550" y="520" />
              <mxPoint x="1550" y="145" />
            </Array>
          </mxGeometry>
        </mxCell>
        <mxCell id="SrsCirZEcUBZI99fBKNt-38" value="command_validator" style="rounded=0;whiteSpace=wrap;html=1;fillColor=#fff2cc;strokeColor=#d6b656;" vertex="1" parent="1">
          <mxGeometry x="1370" y="440" width="120" height="60" as="geometry" />
        </mxCell>
        <mxCell id="SrsCirZEcUBZI99fBKNt-47" style="edgeStyle=orthogonalEdgeStyle;rounded=0;orthogonalLoop=1;jettySize=auto;html=1;entryX=1;entryY=0.25;entryDx=0;entryDy=0;startArrow=classic;startFill=1;fillColor=#f8cecc;strokeColor=#b85450;exitX=0;exitY=0.75;exitDx=0;exitDy=0;" edge="1" parent="1" source="SrsCirZEcUBZI99fBKNt-39" target="SrsCirZEcUBZI99fBKNt-26">
          <mxGeometry relative="1" as="geometry">
            <Array as="points">
              <mxPoint x="1330" y="328" />
              <mxPoint x="1330" y="64" />
            </Array>
          </mxGeometry>
        </mxCell>
        <mxCell id="SrsCirZEcUBZI99fBKNt-49" style="edgeStyle=orthogonalEdgeStyle;rounded=0;orthogonalLoop=1;jettySize=auto;html=1;entryX=1;entryY=0.25;entryDx=0;entryDy=0;fontStyle=0;startArrow=classic;startFill=1;jumpStyle=arc;exitX=0;exitY=0.25;exitDx=0;exitDy=0;fillColor=#f8cecc;strokeColor=#b85450;" edge="1" parent="1" source="SrsCirZEcUBZI99fBKNt-39" target="SrsCirZEcUBZI99fBKNt-27">
          <mxGeometry relative="1" as="geometry">
            <Array as="points">
              <mxPoint x="1350" y="303" />
              <mxPoint x="1350" y="250" />
              <mxPoint x="1070" y="250" />
              <mxPoint x="1070" y="60" />
            </Array>
          </mxGeometry>
        </mxCell>
        <mxCell id="SrsCirZEcUBZI99fBKNt-50" style="edgeStyle=orthogonalEdgeStyle;rounded=0;orthogonalLoop=1;jettySize=auto;html=1;entryX=1;entryY=0.5;entryDx=0;entryDy=0;exitX=0;exitY=0.5;exitDx=0;exitDy=0;startArrow=classic;startFill=1;jumpStyle=arc;endArrow=none;endFill=0;fillColor=#f8cecc;strokeColor=#b85450;" edge="1" parent="1" source="SrsCirZEcUBZI99fBKNt-38" target="SrsCirZEcUBZI99fBKNt-15">
          <mxGeometry relative="1" as="geometry">
            <Array as="points">
              <mxPoint x="960" y="470" />
              <mxPoint x="960" y="305" />
              <mxPoint x="890" y="305" />
            </Array>
          </mxGeometry>
        </mxCell>
        <mxCell id="pZWLnCbVXov4Uf6PaFGh-5" style="edgeStyle=orthogonalEdgeStyle;rounded=0;orthogonalLoop=1;jettySize=auto;html=1;exitX=1;exitY=0.25;exitDx=0;exitDy=0;entryX=1;entryY=0.75;entryDx=0;entryDy=0;jumpStyle=arc;fillColor=#fff2cc;strokeColor=#d6b656;" edge="1" parent="1" source="SrsCirZEcUBZI99fBKNt-39" target="SrsCirZEcUBZI99fBKNt-41">
          <mxGeometry relative="1" as="geometry">
            <Array as="points">
              <mxPoint x="1530" y="303" />
              <mxPoint x="1530" y="175" />
            </Array>
          </mxGeometry>
        </mxCell>
        <mxCell id="SrsCirZEcUBZI99fBKNt-39" value="payment_validator" style="rounded=0;whiteSpace=wrap;html=1;fillColor=#fff2cc;strokeColor=#d6b656;" vertex="1" parent="1">
          <mxGeometry x="1370" y="290" width="120" height="50" as="geometry" />
        </mxCell>
        <mxCell id="SrsCirZEcUBZI99fBKNt-48" style="edgeStyle=orthogonalEdgeStyle;rounded=0;orthogonalLoop=1;jettySize=auto;html=1;entryX=1;entryY=0.5;entryDx=0;entryDy=0;startArrow=classic;startFill=1;fillColor=#f8cecc;strokeColor=#b85450;jumpStyle=arc;exitX=0;exitY=0.75;exitDx=0;exitDy=0;" edge="1" parent="1" source="SrsCirZEcUBZI99fBKNt-40" target="SrsCirZEcUBZI99fBKNt-26">
          <mxGeometry relative="1" as="geometry">
            <Array as="points">
              <mxPoint x="1320" y="406" />
              <mxPoint x="1320" y="83" />
            </Array>
          </mxGeometry>
        </mxCell>
        <mxCell id="pZWLnCbVXov4Uf6PaFGh-4" style="edgeStyle=orthogonalEdgeStyle;rounded=0;orthogonalLoop=1;jettySize=auto;html=1;exitX=1;exitY=0.25;exitDx=0;exitDy=0;entryX=1;entryY=0.5;entryDx=0;entryDy=0;jumpStyle=arc;fillColor=#fff2cc;strokeColor=#d6b656;" edge="1" parent="1" source="SrsCirZEcUBZI99fBKNt-40" target="SrsCirZEcUBZI99fBKNt-41">
          <mxGeometry relative="1" as="geometry">
            <Array as="points">
              <mxPoint x="1540" y="377" />
              <mxPoint x="1540" y="160" />
            </Array>
          </mxGeometry>
        </mxCell>
        <mxCell id="pZWLnCbVXov4Uf6PaFGh-6" style="edgeStyle=orthogonalEdgeStyle;rounded=0;orthogonalLoop=1;jettySize=auto;html=1;exitX=0;exitY=0.25;exitDx=0;exitDy=0;entryX=1;entryY=0.75;entryDx=0;entryDy=0;jumpStyle=arc;startArrow=classic;startFill=1;fillColor=#f8cecc;strokeColor=#b85450;" edge="1" parent="1" source="SrsCirZEcUBZI99fBKNt-40" target="SrsCirZEcUBZI99fBKNt-27">
          <mxGeometry relative="1" as="geometry">
            <Array as="points">
              <mxPoint x="1340" y="377" />
              <mxPoint x="1340" y="240" />
              <mxPoint x="1040" y="240" />
              <mxPoint x="1040" y="90" />
            </Array>
          </mxGeometry>
        </mxCell>
        <mxCell id="SrsCirZEcUBZI99fBKNt-40" value="access_validator" style="rounded=0;whiteSpace=wrap;html=1;fillColor=#fff2cc;strokeColor=#d6b656;" vertex="1" parent="1">
          <mxGeometry x="1370" y="363" width="120" height="57" as="geometry" />
        </mxCell>
        <mxCell id="SrsCirZEcUBZI99fBKNt-51" style="edgeStyle=orthogonalEdgeStyle;rounded=0;orthogonalLoop=1;jettySize=auto;html=1;entryX=0.5;entryY=0;entryDx=0;entryDy=0;startArrow=classic;startFill=1;jumpStyle=arc;fillColor=#fff2cc;strokeColor=#d6b656;" edge="1" parent="1" source="SrsCirZEcUBZI99fBKNt-41" target="ijWir7-l20e8-UUd4Drd-4">
          <mxGeometry relative="1" as="geometry" />
        </mxCell>
        <mxCell id="SrsCirZEcUBZI99fBKNt-54" style="edgeStyle=orthogonalEdgeStyle;rounded=0;orthogonalLoop=1;jettySize=auto;html=1;entryX=1;entryY=0.25;entryDx=0;entryDy=0;startArrow=classic;startFill=1;jumpStyle=arc;fillColor=#fff2cc;strokeColor=#d6b656;" edge="1" parent="1" source="SrsCirZEcUBZI99fBKNt-41" target="GYNVlU0Ag2Xpllhi0Uht-38">
          <mxGeometry relative="1" as="geometry">
            <Array as="points">
              <mxPoint x="990" y="160" />
              <mxPoint x="990" y="490" />
            </Array>
          </mxGeometry>
        </mxCell>
        <mxCell id="SrsCirZEcUBZI99fBKNt-62" style="edgeStyle=orthogonalEdgeStyle;rounded=0;orthogonalLoop=1;jettySize=auto;html=1;exitX=0;exitY=0.25;exitDx=0;exitDy=0;entryX=0.5;entryY=1;entryDx=0;entryDy=0;jumpStyle=arc;fillColor=#d5e8d4;strokeColor=#82b366;" edge="1" parent="1" source="SrsCirZEcUBZI99fBKNt-41" target="SrsCirZEcUBZI99fBKNt-27">
          <mxGeometry relative="1" as="geometry" />
        </mxCell>
        <mxCell id="aVYPvDOmihBg65fGWf27-1" style="edgeStyle=orthogonalEdgeStyle;rounded=0;orthogonalLoop=1;jettySize=auto;html=1;exitX=0;exitY=0.75;exitDx=0;exitDy=0;entryX=0;entryY=0.75;entryDx=0;entryDy=0;fillColor=#d5e8d4;strokeColor=#82b366;jumpStyle=arc;" edge="1" parent="1" source="SrsCirZEcUBZI99fBKNt-41" target="SrsCirZEcUBZI99fBKNt-26">
          <mxGeometry relative="1" as="geometry" />
        </mxCell>
        <mxCell id="SrsCirZEcUBZI99fBKNt-41" value="IC" style="rounded=0;whiteSpace=wrap;html=1;fillColor=#d5e8d4;strokeColor=#82b366;" vertex="1" parent="1">
          <mxGeometry x="1080" y="130" width="120" height="60" as="geometry" />
        </mxCell>
        <mxCell id="SrsCirZEcUBZI99fBKNt-57" style="edgeStyle=orthogonalEdgeStyle;rounded=0;orthogonalLoop=1;jettySize=auto;html=1;entryX=0.25;entryY=1;entryDx=0;entryDy=0;jumpStyle=arc;exitX=1;exitY=0.25;exitDx=0;exitDy=0;fillColor=#f8cecc;strokeColor=#b85450;startArrow=classic;startFill=1;endArrow=none;endFill=0;" edge="1" parent="1" source="SrsCirZEcUBZI99fBKNt-15" target="SrsCirZEcUBZI99fBKNt-27">
          <mxGeometry relative="1" as="geometry" />
        </mxCell>
        <mxCell id="SrsCirZEcUBZI99fBKNt-66" style="edgeStyle=orthogonalEdgeStyle;rounded=0;orthogonalLoop=1;jettySize=auto;html=1;exitX=1;exitY=0.5;exitDx=0;exitDy=0;entryX=0.75;entryY=1;entryDx=0;entryDy=0;jumpStyle=arc;fillColor=#fff2cc;strokeColor=#d6b656;" edge="1" parent="1" source="SrsCirZEcUBZI99fBKNt-59" target="SrsCirZEcUBZI99fBKNt-41">
          <mxGeometry relative="1" as="geometry">
            <Array as="points">
              <mxPoint x="1580" y="560" />
              <mxPoint x="1580" y="220" />
              <mxPoint x="1170" y="220" />
            </Array>
          </mxGeometry>
        </mxCell>
        <mxCell id="SrsCirZEcUBZI99fBKNt-59" value="data_validator" style="rounded=0;whiteSpace=wrap;html=1;fillColor=#fff2cc;strokeColor=#d6b656;" vertex="1" parent="1">
          <mxGeometry x="1370" y="530" width="120" height="60" as="geometry" />
        </mxCell>
        <mxCell id="SrsCirZEcUBZI99fBKNt-64" style="edgeStyle=orthogonalEdgeStyle;rounded=0;orthogonalLoop=1;jettySize=auto;html=1;exitX=0.75;exitY=1;exitDx=0;exitDy=0;entryX=0.5;entryY=1;entryDx=0;entryDy=0;fillColor=#f8cecc;strokeColor=#b85450;" edge="1" parent="1" source="SrsCirZEcUBZI99fBKNt-15" target="SrsCirZEcUBZI99fBKNt-59">
          <mxGeometry relative="1" as="geometry" />
        </mxCell>
        <mxCell id="SrsCirZEcUBZI99fBKNt-65" style="edgeStyle=orthogonalEdgeStyle;rounded=0;orthogonalLoop=1;jettySize=auto;html=1;exitX=1;exitY=0.75;exitDx=0;exitDy=0;entryX=0;entryY=0.5;entryDx=0;entryDy=0;jumpStyle=arc;fillColor=#f8cecc;strokeColor=#b85450;" edge="1" parent="1" source="SrsCirZEcUBZI99fBKNt-26" target="SrsCirZEcUBZI99fBKNt-59">
          <mxGeometry relative="1" as="geometry">
            <Array as="points">
              <mxPoint x="1290" y="101" />
              <mxPoint x="1290" y="560" />
            </Array>
          </mxGeometry>
        </mxCell>
        <mxCell id="GYNVlU0Ag2Xpllhi0Uht-8" value="" style="rounded=0;whiteSpace=wrap;html=1;align=left;movable=0;resizable=0;rotatable=0;deletable=0;editable=0;locked=1;connectable=0;" vertex="1" parent="1">
          <mxGeometry x="434" y="97.5" width="260" height="62.5" as="geometry" />
        </mxCell>
        <mxCell id="GYNVlU0Ag2Xpllhi0Uht-6" value="encoder" style="rounded=0;whiteSpace=wrap;html=1;fillColor=#fff2cc;strokeColor=#d6b656;movable=0;resizable=0;rotatable=0;deletable=0;editable=0;locked=1;connectable=0;" vertex="1" parent="1">
          <mxGeometry x="574" y="110" width="110" height="40" as="geometry" />
        </mxCell>
        <mxCell id="GYNVlU0Ag2Xpllhi0Uht-9" value="Сетевой модуль" style="text;html=1;align=center;verticalAlign=middle;whiteSpace=wrap;rounded=0;movable=0;resizable=0;rotatable=0;deletable=0;editable=0;locked=1;connectable=0;" vertex="1" parent="1">
          <mxGeometry x="430" y="70" width="100" height="30" as="geometry" />
        </mxCell>
        <mxCell id="GYNVlU0Ag2Xpllhi0Uht-7" value="decoder" style="rounded=0;whiteSpace=wrap;html=1;fillColor=#fff2cc;strokeColor=#d6b656;movable=0;resizable=0;rotatable=0;deletable=0;editable=0;locked=1;connectable=0;" vertex="1" parent="1">
          <mxGeometry x="444" y="110" width="110" height="40" as="geometry" />
        </mxCell>
        <mxCell id="GYNVlU0Ag2Xpllhi0Uht-15" value="Среда передачи данных" style="rounded=0;whiteSpace=wrap;html=1;fillColor=#f8cecc;strokeColor=#b85450;movable=1;resizable=1;rotatable=1;deletable=1;editable=1;locked=0;connectable=1;" vertex="1" parent="1">
          <mxGeometry x="494" y="10" width="140" height="50" as="geometry" />
        </mxCell>
        <mxCell id="GYNVlU0Ag2Xpllhi0Uht-18" style="edgeStyle=orthogonalEdgeStyle;rounded=0;orthogonalLoop=1;jettySize=auto;html=1;exitX=0.25;exitY=0;exitDx=0;exitDy=0;entryX=0.767;entryY=1;entryDx=0;entryDy=0;entryPerimeter=0;fillColor=#fff2cc;strokeColor=#d6b656;movable=0;resizable=0;rotatable=0;deletable=0;editable=0;locked=1;connectable=0;" edge="1" parent="1" source="GYNVlU0Ag2Xpllhi0Uht-6" target="GYNVlU0Ag2Xpllhi0Uht-15">
          <mxGeometry relative="1" as="geometry" />
        </mxCell>
        <mxCell id="GYNVlU0Ag2Xpllhi0Uht-17" style="edgeStyle=orthogonalEdgeStyle;rounded=0;orthogonalLoop=1;jettySize=auto;html=1;exitX=0.25;exitY=1;exitDx=0;exitDy=0;entryX=0.773;entryY=-0.008;entryDx=0;entryDy=0;entryPerimeter=0;fillColor=#f8cecc;strokeColor=#b85450;movable=0;resizable=0;rotatable=0;deletable=0;editable=0;locked=1;connectable=0;" edge="1" parent="1" source="GYNVlU0Ag2Xpllhi0Uht-15" target="GYNVlU0Ag2Xpllhi0Uht-7">
          <mxGeometry relative="1" as="geometry" />
        </mxCell>
        <mxCell id="9pykKYRJJOcg8gLF6NiV-1" value="" style="group" connectable="0" vertex="1" parent="1">
          <mxGeometry x="1770" width="220" height="310" as="geometry" />
        </mxCell>
        <mxCell id="9pykKYRJJOcg8gLF6NiV-2" value="&lt;h1&gt;Легенда&lt;/h1&gt;&lt;p&gt;недоверенная сущность&lt;/p&gt;&lt;p&gt;&lt;br&gt;&lt;/p&gt;&lt;p&gt;доверенная сущность&lt;/p&gt;&lt;p&gt;&lt;br&gt;&lt;/p&gt;&lt;p&gt;доверенная сущность, повышающая целостность данных&lt;br&gt;&lt;br&gt;&lt;/p&gt;&lt;p&gt;высокоцелостные данные&lt;/p&gt;&lt;p&gt;повышающие целостность данные&lt;/p&gt;&lt;p&gt;низкоцелостные данные&lt;/p&gt;" style="text;html=1;strokeColor=none;fillColor=none;spacing=5;spacingTop=-20;whiteSpace=wrap;overflow=hidden;rounded=0;" vertex="1" parent="9pykKYRJJOcg8gLF6NiV-1">
          <mxGeometry x="44" width="176" height="310" as="geometry" />
        </mxCell>
        <mxCell id="9pykKYRJJOcg8gLF6NiV-3" value="" style="rounded=1;whiteSpace=wrap;html=1;strokeColor=#b85450;fillColor=#f8cecc;" vertex="1" parent="9pykKYRJJOcg8gLF6NiV-1">
          <mxGeometry y="52.901023890784984" width="35.2" height="21.160409556313994" as="geometry" />
        </mxCell>
        <mxCell id="9pykKYRJJOcg8gLF6NiV-4" value="" style="rounded=1;whiteSpace=wrap;html=1;strokeColor=#82b366;fillColor=#d5e8d4;" vertex="1" parent="9pykKYRJJOcg8gLF6NiV-1">
          <mxGeometry y="103.68600682593856" width="35.2" height="21.160409556313994" as="geometry" />
        </mxCell>
        <mxCell id="9pykKYRJJOcg8gLF6NiV-5" value="" style="rounded=1;whiteSpace=wrap;html=1;strokeColor=#d6b656;fillColor=#fff2cc;" vertex="1" parent="9pykKYRJJOcg8gLF6NiV-1">
          <mxGeometry y="169.28327645051195" width="35.2" height="21.160409556313994" as="geometry" />
        </mxCell>
        <mxCell id="9pykKYRJJOcg8gLF6NiV-6" value="" style="endArrow=classic;html=1;rounded=0;strokeColor=#009900;" edge="1" parent="9pykKYRJJOcg8gLF6NiV-1">
          <mxGeometry width="50" height="50" relative="1" as="geometry">
            <mxPoint x="2.64" y="235.5767918088737" as="sourcePoint" />
            <mxPoint x="37.84" y="235.5767918088737" as="targetPoint" />
          </mxGeometry>
        </mxCell>
        <mxCell id="9pykKYRJJOcg8gLF6NiV-7" value="" style="endArrow=classic;html=1;rounded=0;strokeColor=#FF0000;" edge="1" parent="9pykKYRJJOcg8gLF6NiV-1">
          <mxGeometry width="50" height="50" relative="1" as="geometry">
            <mxPoint x="4.4" y="299.419795221843" as="sourcePoint" />
            <mxPoint x="38.72" y="299.419795221843" as="targetPoint" />
          </mxGeometry>
        </mxCell>
        <mxCell id="UuBcxtO0pDPF-HHFecs--4" value="" style="endArrow=classic;html=1;rounded=0;strokeColor=#d6b656;fillColor=#fff2cc;" edge="1" parent="9pykKYRJJOcg8gLF6NiV-1">
          <mxGeometry width="50" height="50" relative="1" as="geometry">
            <mxPoint y="267.0853242320819" as="sourcePoint" />
            <mxPoint x="35.19999999999982" y="267.0853242320819" as="targetPoint" />
          </mxGeometry>
        </mxCell>
        <mxCell id="UuBcxtO0pDPF-HHFecs--1" value="" style="group" connectable="0" vertex="1" parent="1">
          <mxGeometry x="2000" width="240" height="160" as="geometry" />
        </mxCell>
        <mxCell id="UuBcxtO0pDPF-HHFecs--2" value="&lt;h1&gt;&lt;font style=&quot;font-size: 14px;&quot;&gt;Качественные оценки доменов&amp;nbsp;&lt;/font&gt;&lt;/h1&gt;&lt;p&gt;Сложность - S (simple), M(medium), C (complex) - простой, средней сложности, сложный&lt;/p&gt;&lt;p&gt;Размер (объём) кода - S, M, L, XL - маленький, среднего размера, большой, очень большой&lt;/p&gt;&lt;p&gt;&lt;span style=&quot;background-color: initial;&quot;&gt;&amp;nbsp; &amp;nbsp;&amp;nbsp; &amp;nbsp; &amp;nbsp;- простой и маленький&lt;/span&gt;&lt;br&gt;&lt;/p&gt;" style="text;html=1;strokeColor=none;fillColor=none;spacing=5;spacingTop=-20;whiteSpace=wrap;overflow=hidden;rounded=0;fontSize=10;" vertex="1" parent="UuBcxtO0pDPF-HHFecs--1">
          <mxGeometry width="240" height="160" as="geometry" />
        </mxCell>
        <mxCell id="UuBcxtO0pDPF-HHFecs--3" value="SS" style="ellipse;whiteSpace=wrap;html=1;aspect=fixed;strokeColor=#000000;fontSize=10;fillColor=#FFFFFF;" vertex="1" parent="UuBcxtO0pDPF-HHFecs--1">
          <mxGeometry x="2.769230769230769" y="105" width="18.461538461538463" height="18.461538461538463" as="geometry" />
        </mxCell>
        <mxCell id="x0_LvxWvrZfBi2gnfUxq-2" value="&lt;div style=&quot;text-align: justify; line-height: 90%;&quot;&gt;&lt;span style=&quot;background-color: initial;&quot;&gt;&lt;font style=&quot;font-size: 9px;&quot;&gt;SS&lt;/font&gt;&lt;/span&gt;&lt;/div&gt;" style="ellipse;whiteSpace=wrap;html=1;aspect=fixed;strokeColor=#d6b656;fontSize=10;fillColor=#fff2cc;" vertex="1" parent="1">
          <mxGeometry x="541" y="103.53999999999995" width="18.46" height="18.46" as="geometry" />
        </mxCell>
        <mxCell id="x0_LvxWvrZfBi2gnfUxq-3" value="&lt;div style=&quot;text-align: justify; line-height: 90%;&quot;&gt;&lt;span style=&quot;background-color: initial;&quot;&gt;&lt;font style=&quot;font-size: 9px;&quot;&gt;SS&lt;/font&gt;&lt;/span&gt;&lt;/div&gt;" style="ellipse;whiteSpace=wrap;html=1;aspect=fixed;strokeColor=#d6b656;fontSize=10;fillColor=#fff2cc;" vertex="1" parent="1">
          <mxGeometry x="671.54" y="103.53999999999995" width="18.46" height="18.46" as="geometry" />
        </mxCell>
        <mxCell id="x0_LvxWvrZfBi2gnfUxq-4" value="&lt;div style=&quot;text-align: justify; line-height: 90%;&quot;&gt;&lt;span style=&quot;background-color: initial;&quot;&gt;&lt;font style=&quot;font-size: 9px;&quot;&gt;SS&lt;/font&gt;&lt;/span&gt;&lt;/div&gt;" style="ellipse;whiteSpace=wrap;html=1;aspect=fixed;strokeColor=#b85450;fontSize=10;fillColor=#f8cecc;" vertex="1" parent="1">
          <mxGeometry x="1005.54" y="37" width="18.46" height="18.46" as="geometry" />
        </mxCell>
        <mxCell id="x0_LvxWvrZfBi2gnfUxq-5" value="&lt;div style=&quot;text-align: justify; line-height: 90%;&quot;&gt;&lt;span style=&quot;background-color: initial;&quot;&gt;&lt;font style=&quot;font-size: 9px;&quot;&gt;SS&lt;/font&gt;&lt;/span&gt;&lt;/div&gt;" style="ellipse;whiteSpace=wrap;html=1;aspect=fixed;strokeColor=#b85450;fontSize=10;fillColor=#f8cecc;" vertex="1" parent="1">
          <mxGeometry x="1187" y="38" width="18.46" height="18.46" as="geometry" />
        </mxCell>
        <mxCell id="x0_LvxWvrZfBi2gnfUxq-6" value="&lt;div style=&quot;text-align: justify; line-height: 90%;&quot;&gt;&lt;font size=&quot;1&quot;&gt;MM&lt;/font&gt;&lt;/div&gt;" style="ellipse;whiteSpace=wrap;html=1;aspect=fixed;strokeColor=#82b366;fontSize=10;fillColor=#d5e8d4;" vertex="1" parent="1">
          <mxGeometry x="1187" y="122" width="18.46" height="18.46" as="geometry" />
        </mxCell>
        <mxCell id="x0_LvxWvrZfBi2gnfUxq-12" value="&lt;div style=&quot;text-align: justify; line-height: 90%;&quot;&gt;&lt;span style=&quot;background-color: initial;&quot;&gt;&lt;font style=&quot;font-size: 9px;&quot;&gt;MS&lt;/font&gt;&lt;/span&gt;&lt;/div&gt;" style="ellipse;whiteSpace=wrap;html=1;aspect=fixed;strokeColor=#d6b656;fontSize=10;fillColor=#fff2cc;" vertex="1" parent="1">
          <mxGeometry x="1455.77" y="280.7699999999999" width="18.46" height="18.46" as="geometry" />
        </mxCell>
        <mxCell id="x0_LvxWvrZfBi2gnfUxq-13" value="&lt;div style=&quot;text-align: justify; line-height: 90%;&quot;&gt;&lt;span style=&quot;background-color: initial;&quot;&gt;&lt;font style=&quot;font-size: 9px;&quot;&gt;MS&lt;/font&gt;&lt;/span&gt;&lt;/div&gt;" style="ellipse;whiteSpace=wrap;html=1;aspect=fixed;strokeColor=#d6b656;fontSize=10;fillColor=#fff2cc;" vertex="1" parent="1">
          <mxGeometry x="1455.77" y="355.7699999999999" width="18.46" height="18.46" as="geometry" />
        </mxCell>
        <mxCell id="x0_LvxWvrZfBi2gnfUxq-14" value="&lt;div style=&quot;text-align: justify; line-height: 90%;&quot;&gt;&lt;span style=&quot;background-color: initial;&quot;&gt;&lt;font style=&quot;font-size: 9px;&quot;&gt;SS&lt;/font&gt;&lt;/span&gt;&lt;/div&gt;" style="ellipse;whiteSpace=wrap;html=1;aspect=fixed;strokeColor=#d6b656;fontSize=10;fillColor=#fff2cc;" vertex="1" parent="1">
          <mxGeometry x="1455.77" y="432.99999999999994" width="18.46" height="18.46" as="geometry" />
        </mxCell>
        <mxCell id="x0_LvxWvrZfBi2gnfUxq-15" value="&lt;div style=&quot;text-align: justify; line-height: 90%;&quot;&gt;&lt;span style=&quot;background-color: initial;&quot;&gt;&lt;font style=&quot;font-size: 9px;&quot;&gt;SM&lt;/font&gt;&lt;/span&gt;&lt;/div&gt;" style="ellipse;whiteSpace=wrap;html=1;aspect=fixed;strokeColor=#d6b656;fontSize=10;fillColor=#fff2cc;" vertex="1" parent="1">
          <mxGeometry x="1455.77" y="523.77" width="18.46" height="18.46" as="geometry" />
        </mxCell>
        <mxCell id="x0_LvxWvrZfBi2gnfUxq-21" value="&lt;div style=&quot;text-align: justify; line-height: 90%;&quot;&gt;&lt;span style=&quot;background-color: initial;&quot;&gt;&lt;font style=&quot;font-size: 9px;&quot;&gt;SS&lt;/font&gt;&lt;/span&gt;&lt;/div&gt;" style="ellipse;whiteSpace=wrap;html=1;aspect=fixed;strokeColor=#b85450;fontSize=10;fillColor=#f8cecc;" vertex="1" parent="1">
          <mxGeometry x="1213" y="353.77" width="18.46" height="18.46" as="geometry" />
        </mxCell>
        <mxCell id="x0_LvxWvrZfBi2gnfUxq-22" value="&lt;div style=&quot;text-align: justify; line-height: 90%;&quot;&gt;&lt;span style=&quot;background-color: initial;&quot;&gt;&lt;font style=&quot;font-size: 9px;&quot;&gt;SS&lt;/font&gt;&lt;/span&gt;&lt;/div&gt;" style="ellipse;whiteSpace=wrap;html=1;aspect=fixed;strokeColor=#d6b656;fontSize=10;fillColor=#fff2cc;" vertex="1" parent="1">
          <mxGeometry x="1093" y="356.7699999999999" width="18.46" height="18.46" as="geometry" />
        </mxCell>
        <mxCell id="x0_LvxWvrZfBi2gnfUxq-24" value="&lt;div style=&quot;text-align: justify; line-height: 90%;&quot;&gt;&lt;font size=&quot;1&quot;&gt;MM&lt;/font&gt;&lt;/div&gt;" style="ellipse;whiteSpace=wrap;html=1;aspect=fixed;strokeColor=#b85450;fontSize=10;fillColor=#f8cecc;" vertex="1" parent="1">
          <mxGeometry x="877" y="231.54" width="18.46" height="18.46" as="geometry" />
        </mxCell>
      </root>
    </mxGraphModel>
  </diagram>
</mxfile>
